<svg width="46" height="46" viewBox="0 0 46 46" fill="none" xmlns="http://www.w3.org/2000/svg">
<path d="M32.3036 15.6797C31.766 15.1472 31.1278 14.7248 30.4253 14.4366C29.7228 14.1483 28.9699 14 28.2095 14C27.4491 14 26.6961 14.1483 25.9936 14.4366C25.2912 14.7248 24.6529 15.1472 24.1153 15.6797L22.9997 16.7844L21.8841 15.6797C20.7983 14.6046 19.3256 14.0006 17.79 14.0006C16.2544 14.0006 14.7817 14.6046 13.6958 15.6797C12.61 16.7549 12 18.2131 12 19.7336C12 21.2541 12.61 22.7124 13.6958 23.7875L14.8115 24.8922L22.9997 33L31.188 24.8922L32.3036 23.7875C32.8414 23.2553 33.268 22.6233 33.5591 21.9277C33.8502 21.2321 34 20.4866 34 19.7336C34 18.9807 33.8502 18.2352 33.5591 17.5396C33.268 16.844 32.8414 16.212 32.3036 15.6797V15.6797Z" stroke="black" stroke-linecap="round" stroke-linejoin="round"/>
</svg>
