<svg width="24" height="24" viewBox="0 0 24 24" xmlns="http://www.w3.org/2000/svg"><path d="M12,2.16266667 C15.204,2.16266667 15.584,2.17466667 16.8493333,2.232 C18.0186667,2.28533333 18.6546667,2.48133333 19.0773333,2.64533333 C19.6373333,2.86266667 20.0373333,3.12266667 20.4573333,3.54266667 C20.8773333,3.96266667 21.1373333,4.36266667 21.3546667,4.92266667 C21.5186667,5.34533333 21.7146667,5.98133333 21.768,7.15066667 C21.8253333,8.416 21.8373333,8.796 21.8373333,12 C21.8373333,15.204 21.8253333,15.584 21.768,16.8493333 C21.7146667,18.0186667 21.5186667,18.6546667 21.3546667,19.0773333 C21.1373333,19.6373333 20.8773333,20.0373333 20.4573333,20.4573333 C20.0373333,20.8773333 19.6373333,21.1373333 19.0773333,21.3546667 C18.6546667,21.5186667 18.0186667,21.7146667 16.8493333,21.768 C15.584,21.8253333 15.2053333,21.8373333 12,21.8373333 C8.79466667,21.8373333 8.416,21.8253333 7.15066667,21.768 C5.98133333,21.7146667 5.34533333,21.5186667 4.92266667,21.3546667 C4.36266667,21.1373333 3.96266667,20.8773333 3.54266667,20.4573333 C3.12266667,20.0373333 2.86266667,19.6373333 2.64533333,19.0773333 C2.48133333,18.6546667 2.28533333,18.0186667 2.232,16.8493333 C2.17466667,15.584 2.16266667,15.204 2.16266667,12 C2.16266667,8.796 2.17466667,8.416 2.232,7.15066667 C2.28533333,5.98133333 2.48133333,5.34533333 2.64533333,4.92266667 C2.86266667,4.36266667 3.12266667,3.96266667 3.54266667,3.54266667 C3.96266667,3.12266667 4.36266667,2.86266667 4.92266667,2.64533333 C5.34533333,2.48133333 5.98133333,2.28533333 7.15066667,2.232 C8.416,2.17466667 8.796,2.16266667 12,2.16266667 M12,0 C8.74133333,0 8.332,0.0133333333 7.052,0.072 C5.77466667,0.130666667 4.90266667,0.333333333 4.14,0.629333333 C3.35066667,0.936 2.68133333,1.34666667 2.01466667,2.01466667 C1.348,2.68133333 0.937333333,3.35066667 0.630666667,4.14 C0.333333333,4.90266667 0.130666667,5.77466667 0.072,7.052 C0.0133333333,8.332 0,8.74133333 0,12 C0,15.2586667 0.0133333333,15.668 0.072,16.948 C0.130666667,18.2253333 0.333333333,19.0973333 0.629333333,19.8613333 C0.936,20.6506667 1.34666667,21.32 2.01333333,21.9866667 C2.68,22.6533333 3.34933333,23.064 4.13866667,23.3706667 C4.90133333,23.6666667 5.77466667,23.8706667 7.052,23.928 C8.332,23.9866667 8.74133333,24 12,24 C15.2586667,24 15.668,23.9866667 16.948,23.928 C18.2253333,23.8693333 19.0973333,23.6666667 19.8613333,23.3706667 C20.6506667,23.064 21.32,22.6533333 21.9866667,21.9866667 C22.6533333,21.32 23.064,20.6506667 23.3706667,19.8613333 C23.6666667,19.0986667 23.8706667,18.2253333 23.928,16.948 C23.9866667,15.668 24,15.2586667 24,12 C24,8.74133333 23.9866667,8.332 23.928,7.052 C23.8693333,5.77466667 23.6666667,4.90266667 23.3706667,4.13866667 C23.064,3.34933333 22.6533333,2.68 21.9866667,2.01333333 C21.32,1.34666667 20.6506667,0.936 19.8613333,0.629333333 C19.0986667,0.333333333 18.2253333,0.129333333 16.948,0.072 C15.668,0.0133333333 15.2586667,0 12,0 L12,0 Z M12,5.83733333 C8.59733333,5.83733333 5.83733333,8.596 5.83733333,12 C5.83733333,15.404 8.59733333,18.1626667 12,18.1626667 C15.4026667,18.1626667 18.1626667,15.404 18.1626667,12 C18.1626667,8.596 15.4026667,5.83733333 12,5.83733333 Z M12,16 C9.79066667,16 8,14.2093333 8,12 C8,9.79066667 9.79066667,8 12,8 C14.2093333,8 16,9.79066667 16,12 C16,14.2093333 14.2093333,16 12,16 Z M18.4053333,4.15466667 C17.6106667,4.15466667 16.9653333,4.8 16.9653333,5.59466667 C16.9653333,6.38933333 17.6106667,7.03466667 18.4053333,7.03466667 C19.2,7.03466667 19.8453333,6.38933333 19.8453333,5.59466667 C19.8453333,4.8 19.2013333,4.15466667 18.4053333,4.15466667 Z"/></svg>