<svg width="56" height="56" viewBox="0 0 56 56" fill="none" xmlns="http://www.w3.org/2000/svg">
<rect width="56" height="56" rx="28" fill="#F7F7F7"/>
<path d="M37.3036 21.6797C36.766 21.1472 36.1278 20.7248 35.4253 20.4366C34.7228 20.1483 33.9699 20 33.2095 20C32.4491 20 31.6961 20.1483 30.9936 20.4366C30.2912 20.7248 29.6529 21.1472 29.1153 21.6797L27.9997 22.7844L26.8841 21.6797C25.7983 20.6046 24.3256 20.0006 22.79 20.0006C21.2544 20.0006 19.7817 20.6046 18.6958 21.6797C17.61 22.7549 17 24.2131 17 25.7336C17 27.2541 17.61 28.7124 18.6958 29.7875L19.8115 30.8922L27.9997 39L36.188 30.8922L37.3036 29.7875C37.8414 29.2553 38.268 28.6233 38.5591 27.9277C38.8502 27.2321 39 26.4866 39 25.7336C39 24.9807 38.8502 24.2352 38.5591 23.5396C38.268 22.844 37.8414 22.212 37.3036 21.6797V21.6797Z" stroke="black" stroke-width="2" stroke-linecap="round" stroke-linejoin="round"/>
</svg>
