<svg width="32" height="32" viewBox="0 0 32 32" fill="none" xmlns="http://www.w3.org/2000/svg">
<path d="M13.9141 2.01789C15.0771 0.892785 16.9229 0.892786 18.0859 2.01789L18.9014 2.80684C19.5665 3.45022 20.4912 3.75069 21.4075 3.62109L22.531 3.46218C24.1332 3.23556 25.6264 4.32046 25.906 5.91429L26.102 7.03192C26.2619 7.94334 26.8334 8.72998 27.6509 9.16368L28.6532 9.6955C30.0826 10.4539 30.653 12.2093 29.9424 13.6631L29.444 14.6825C29.0377 15.5138 29.0377 16.4862 29.444 17.3175L29.9424 18.3369C30.653 19.7907 30.0826 21.5461 28.6532 22.3045L27.6509 22.8363C26.8334 23.27 26.2619 24.0567 26.102 24.9681L25.906 26.0857C25.6264 27.6795 24.1332 28.7644 22.531 28.5378L21.4075 28.3789C20.4912 28.2493 19.5665 28.5498 18.9014 29.1932L18.0859 29.9821C16.9229 31.1072 15.0771 31.1072 13.9141 29.9821L13.0986 29.1932C12.4335 28.5498 11.5088 28.2493 10.5925 28.3789L9.46904 28.5378C7.86682 28.7644 6.37358 27.6795 6.094 26.0857L5.89796 24.9681C5.73808 24.0567 5.16655 23.27 4.34914 22.8363L3.34679 22.3045C1.91737 21.5461 1.347 19.7907 2.05765 18.3369L2.55597 17.3175C2.96235 16.4862 2.96235 15.5138 2.55597 14.6825L2.05765 13.6631C1.347 12.2093 1.91737 10.4539 3.34679 9.6955L4.34914 9.16368C5.16655 8.72998 5.73808 7.94334 5.89796 7.03192L6.094 5.91429C6.37359 4.32046 7.86682 3.23556 9.46904 3.46218L10.5925 3.62109C11.5088 3.75069 12.4335 3.45022 13.0986 2.80683L13.9141 2.01789Z" stroke="black" stroke-width="2" stroke-linecap="round" stroke-linejoin="round"/>
<circle cx="11.5" cy="11.5" r="2.5" fill="white" stroke="black" stroke-width="2" stroke-linecap="round" stroke-linejoin="round"/>
<circle cx="20.5" cy="20.5" r="2.5" fill="white" stroke="black" stroke-width="2" stroke-linecap="round" stroke-linejoin="round"/>
<path d="M10 22L22 10" stroke="black" stroke-width="2" stroke-linecap="round"/>
</svg>
