<svg width="46" height="46" viewBox="0 0 46 46" fill="none" xmlns="http://www.w3.org/2000/svg">
<path fill-rule="evenodd" clip-rule="evenodd" d="M21.5 13.5C17.0817 13.5 13.5 17.0817 13.5 21.5C13.5 25.9183 17.0817 29.5 21.5 29.5C25.9183 29.5 29.5 25.9183 29.5 21.5C29.5 17.0817 25.9183 13.5 21.5 13.5ZM12.5 21.5C12.5 16.5294 16.5294 12.5 21.5 12.5C26.4706 12.5 30.5 16.5294 30.5 21.5C30.5 26.4706 26.4706 30.5 21.5 30.5C16.5294 30.5 12.5 26.4706 12.5 21.5Z" fill="black"/>
<path fill-rule="evenodd" clip-rule="evenodd" d="M27.6464 27.6464C27.8417 27.4512 28.1583 27.4512 28.3536 27.6464L32.3536 31.6464C32.5488 31.8417 32.5488 32.1583 32.3536 32.3536C32.1583 32.5488 31.8417 32.5488 31.6464 32.3536L27.6464 28.3536C27.4512 28.1583 27.4512 27.8417 27.6464 27.6464Z" fill="black"/>
</svg>
