<svg width="20" height="20" viewBox="0 0 20 20" xmlns="http://www.w3.org/2000/svg"><path d="M10,0 C4.486,0 0,4.486 0,10 C0,15.514 4.486,20 10,20 C15.514,20 20,15.514 20,10 C20,8.3955 19.6110235,6.883586 18.9365235,5.538086 L17.814453,6.660156 C18.254453,7.685656 18.5,8.8145 18.5,10 C18.5,14.687 14.687,18.5 10,18.5 C5.313,18.5 1.5,14.687 1.5,10 C1.5,5.313 5.313,1.5 10,1.5 C12.223,1.5 14.242789,2.36460155 15.758789,3.7666015 L16.819336,2.7060547 C15.030836,1.0325547 12.6365,0 10,0 Z M17.7353515,3.493164 C17.5405722,3.49884066 17.3556472,3.58009558 17.2197265,3.7197265 L8.75,12.189453 L6.7802735,10.2197265 C6.5921594,10.0238033 6.31282514,9.94488279 6.04999814,10.0134014 C5.78717114,10.08192 5.58191999,10.2871711 5.51340139,10.5499981 C5.44488279,10.8128251 5.52380325,11.0921594 5.7197265,11.2802735 L8.2197265,13.7802735 C8.51262391,14.0730499 8.98737609,14.0730499 9.2802735,13.7802735 L18.2802735,4.7802735 C18.5017243,4.56459948 18.5681838,4.23515831 18.4476674,3.9504979 C18.3271511,3.6658375 18.0443443,3.48426477 17.7353515,3.493164 Z"/></svg>