<svg width="20" height="20" viewBox="0 0 20 20" xmlns="http://www.w3.org/2000/svg"><path d="M10,0 C4.486033,0 0,4.486037 0,10 C0,15.513963 4.486033,20 10,20 C15.513967,20 20,15.513963 20,10 C20,4.486037 15.513967,0 10,0 Z M10,1.5 C14.7033075,1.5 18.5,5.2966955 18.5,10 C18.5,14.7033045 14.7033075,18.5 10,18.5 C5.2966925,18.5 1.5,14.7033045 1.5,10 C1.5,5.2966955 5.2966925,1.5 10,1.5 Z M13.243164,5.989258 C13.0450944,5.99393548 12.8569202,6.07678823 12.7197265,6.2197265 L10,8.939453 L7.2802735,6.2197265 C7.13903406,6.07427589 6.94492985,5.99219556 6.7421875,5.9921875 C6.43686497,5.99226195 6.16205708,6.17739895 6.04729605,6.46033313 C5.93253502,6.74326732 6.00072588,7.06752816 6.2197265,7.2802735 L8.939453,10 L6.2197265,12.7197265 C6.02380325,12.9078406 5.94488279,13.1871749 6.01340139,13.4500019 C6.08191999,13.7128289 6.28717114,13.91808 6.54999814,13.9865986 C6.81282514,14.0551172 7.0921594,13.9761967 7.2802735,13.7802735 L10,11.060547 L12.7197265,13.7802735 C12.9078406,13.9761967 13.1871749,14.0551172 13.4500019,13.9865986 C13.7128289,13.91808 13.91808,13.7128289 13.9865986,13.4500019 C14.0551172,13.1871749 13.9761967,12.9078406 13.7802735,12.7197265 L11.060547,10 L13.7802735,7.2802735 C14.0035022,7.06601953 14.0722631,6.73668027 13.9534119,6.45100529 C13.8345607,6.16533031 13.5524897,5.98194995 13.243164,5.989258 Z"/></svg>