<svg width="175" height="114" viewBox="0 0 175 114" xmlns="http://www.w3.org/2000/svg"><g fill="none" fill-rule="evenodd"><rect fill="#FFF" width="175" height="114" rx="12"/><g fill-rule="nonzero"><path d="M159.328128,0 L15.6720583,0 C15.0737508,0 14.474386,0 13.8771463,0.0035502255 C13.3722906,0.00720803359 12.8686085,0.0129099109 12.3649264,0.0268956477 C11.2664257,0.0571263558 10.1585154,0.123074484 9.07375923,0.321456782 C7.97166386,0.523281722 6.94611464,0.85248445 5.94562266,1.37081737 C4.96204695,1.87979061 4.06157244,2.54551168 3.28121407,3.33990153 C2.50051737,4.13429138 1.8462804,5.04906615 1.346193,6.05098282 C0.836695916,7.06903688 0.512960689,8.11291076 0.315991803,9.23521235 C0.11998503,10.3393325 0.0547410684,11.4664753 0.0251375858,12.583075 C0.0116045652,13.0955985 0.00580016806,13.6081219 0.00251206695,14.1205378 C0,14.7295628 0,15.3381576 0,15.9482584 L0,98.052925 C0,98.6630258 0,99.2705555 0.00251206695,99.8807639 C0.00580016806,100.39318 0.0116045652,100.905703 0.0251375858,101.418227 C0.0547410684,102.533847 0.11998503,103.66099 0.315991803,104.764788 C0.512960689,105.88752 0.836695916,106.930963 1.346193,107.949125 C1.8462804,108.951041 2.50051737,109.867 3.28121407,110.660206 C4.06157244,111.455887 4.96204695,112.1215 5.94562266,112.629183 C6.94611464,113.148914 7.97166386,113.478224 9.07375923,113.679942 C10.1585154,113.877033 11.2664257,113.944165 12.3649264,113.974395 C12.8686085,113.986014 13.3722906,113.9929 13.8771463,113.995266 C14.474386,114 15.0737508,114 15.6720583,114 L159.328128,114 C159.925378,114 160.524753,114 161.121877,113.995266 C161.625569,113.9929 162.129262,113.986014 162.635249,113.974395 C163.731424,113.944165 164.839123,113.877033 165.926533,113.679942 C167.027148,113.478224 168.052908,113.148914 169.053506,112.629183 C170.038139,112.1215 170.93597,111.455887 171.717936,110.660206 C172.497353,109.867 173.15158,108.951041 173.652946,107.949125 C174.163596,106.930963 174.487014,105.88752 174.683031,104.764788 C174.879154,103.66099 174.942802,102.533847 174.972511,101.418227 C174.986256,100.905703 174.993033,100.39318 174.995359,99.8807639 C175,99.2705555 175,98.6630366 175,98.052925 L175,15.9482584 C175,15.3381576 175,14.7295628 174.995359,14.1205378 C174.993033,13.6081219 174.986256,13.0955985 174.972511,12.583075 C174.942791,11.4664753 174.879154,10.3393325 174.683031,9.23521235 C174.487025,8.11291076 174.163596,7.06903688 173.652946,6.05098282 C173.15158,5.04906615 172.497353,4.13429138 171.717936,3.33990153 C170.93597,2.54551168 170.038139,1.87979061 169.053506,1.37081737 C168.052908,0.85248445 167.027148,0.523281722 165.926533,0.321456782 C164.839133,0.123074484 163.731434,0.0571263558 162.635249,0.0268956477 C162.129262,0.0129099109 161.625569,0.00720803359 161.121877,0.0035502255 C160.524753,0 159.925378,0 159.328128,0 L159.328128,0 Z" fill="#000"/><path d="M159.10026,4.07142857 L160.861866,4.07488657 C161.339078,4.07834457 161.816301,4.08363963 162.296158,4.09703938 C163.130869,4.12016476 164.107299,4.16652357 165.017458,4.33380432 C165.808632,4.47990482 166.472165,4.70208131 167.10895,5.03448156 C167.73761,5.36201899 168.313584,5.79124324 168.816491,6.30616104 C169.321315,6.82453685 169.740468,7.41607097 170.064124,8.06779589 C170.386506,8.71563057 170.601821,9.39275019 170.743467,10.2099188 C170.906191,11.1329887 170.951193,12.1368893 170.974074,12.9980393 C170.986921,13.4841044 170.993244,13.9701696 170.995573,14.4677974 C171,15.0695974 171,15.6710733 171,16.274062 L171,98.7449836 C171,99.3479723 171,99.9483676 170.995468,100.563027 C170.993244,101.048984 170.986931,101.535049 170.973968,102.021979 C170.951193,102.881832 170.906202,103.885192 170.741475,104.819177 C170.601821,105.625107 170.386622,106.302334 170.062449,106.953411 C169.73973,107.603515 169.321221,108.194401 168.818599,108.709535 C168.312836,109.228235 167.738759,109.656162 167.102627,109.986725 C166.470595,110.317505 165.808199,110.539476 165.024825,110.684053 C164.096232,110.853711 163.07889,110.900394 162.312694,110.921682 C161.830634,110.932812 161.350893,110.939502 160.859463,110.94189 C160.273793,110.946429 159.686036,110.946429 159.10027,110.946429 L15.8998455,110.946429 C15.8920465,110.946429 15.8844584,110.946429 15.876554,110.946429 C15.2975338,110.946429 14.7173543,110.946429 14.1277949,110.941782 C13.6471049,110.939502 13.1674687,110.932921 12.7037467,110.922114 C11.9200564,110.900394 10.9020811,110.853819 9.9810659,110.685133 C9.1909573,110.539465 8.52856197,110.317505 7.88820398,109.982403 C7.25807949,109.654757 6.6844237,109.227262 6.17843971,108.70759 C5.6763552,108.193644 5.25911075,107.604596 4.93650775,106.953519 C4.61358858,106.303091 4.39753626,105.62381 4.25547923,104.808262 C4.09126893,103.876115 4.04616142,102.876753 4.02361821,102.022735 C4.01074992,101.533752 4.00537496,101.044878 4.00231861,100.558813 L4,99.1238507 L4,98.7449836 L4,16.274062 L4,15.8951949 L4.00221322,14.4632587 C4.00537496,13.9742759 4.01074992,13.4854012 4.02361821,12.9968506 C4.04616142,12.1419682 4.09126893,11.142174 4.25683878,10.2022464 C4.39764166,9.39404694 4.61358858,8.71476607 4.93819402,8.06109602 C5.25826762,7.41499034 5.67624981,6.82518522 6.18097964,6.30778198 C6.6836965,5.79210774 7.25922826,5.3634238 7.89336816,5.03275256 C8.52687571,4.70197325 9.1905252,4.47990482 9.98064433,4.33412851 C10.891015,4.16641551 11.8680985,4.12016476 12.704906,4.09693132 C13.1819073,4.08363963 13.6589087,4.07834457 14.1323268,4.07499463 L15.8998455,4.07142857 L159.10026,4.07142857" fill="#FFF"/><g transform="translate(24 31.554)" fill="#000"><path d="M24.0024893 7.08794723C25.4977034 5.1799129 26.5123462 2.61798507 26.2447408 1.446462e-14 24.0559576.111038113 21.3849678 1.47323551 19.8385959 3.38276599 18.450118 5.01798411 17.221201 7.68718277 17.5415784 10.1954214 19.9986 10.4128585 22.4533532 8.94244302 24.0024893 7.08794723M26.216825 10.685158C22.6486371 10.4683129 19.6148054 12.751257 17.9108137 12.751257 16.2058831 12.751257 13.5965169 10.7944309 10.7742691 10.8471729 7.10093809 10.9022184 3.69251161 13.0211777 1.82845255 16.3913179-2.00559995 23.1332559.816647814 33.1339085 4.54506134 38.6248379 6.35566262 41.3413753 8.5377464 44.3324833 11.4129772 44.2250402 14.129586 44.116284 15.1943843 42.4303905 18.4965388 42.4303905 21.7962667 42.4303905 22.755426 44.2250402 25.631121 44.1706729 28.6132885 44.1162732 30.4776746 41.4527793 32.2882548 38.7335942 34.3653537 35.6368837 35.2156457 32.6467552 35.2691245 32.4826091 35.2156351 32.4282417 29.518663 30.1985133 29.4658382 23.512611 29.4120534 17.9144108 33.9385988 15.251595 34.1516386 15.0864587 31.5954559 11.2293481 27.6014732 10.7944309 26.216825 10.685158"/><path d="M14.9850788 0C22.7404761 0 28.1408404 5.45405304 28.1408404 13.3947312 28.1408404 21.3637609 22.629351 26.846144 14.7906073 26.846144L6.20389788 26.846144 6.20389788 40.7777675 0 40.7777675 0 0 14.9850788 0 14.9850788 0ZM6.20388733 21.5332781 13.3224333 21.5332781C18.7238632 21.5332781 21.7980282 18.5664207 21.7980282 13.423072 21.7980282 8.28027225 18.7238632 5.3412174 13.350212 5.3412174L6.20388733 5.3412174 6.20388733 21.5332781 6.20388733 21.5332781ZM29.7617916 32.3285378C29.7617916 27.1284968 33.6672794 23.9354406 40.59243 23.539714L48.5690118 23.0595032 48.5690118 20.7707253C48.5690118 17.4642845 46.3806612 15.4862002 42.7252127 15.4862002 39.2621046 15.4862002 37.1015327 17.1813935 36.5758171 19.8380955L30.9254134 19.8380955C31.2577337 14.4685374 35.7444943 10.5123687 42.9463973 10.5123687 50.009386 10.5123687 54.5239253 14.327361 54.5239253 20.2899655L54.5239253 40.7777783 48.7901963 40.7777783 48.7901963 35.8889798 48.6523582 35.8889798C46.9630102 39.1954206 43.2787175 41.2863298 39.4565762 41.2863298 33.7506153 41.2863298 29.7617916 37.6691955 29.7617916 32.3285378ZM48.5690118 29.6440332 48.5690118 27.2985737 41.3948874 27.7504437C37.8217198 28.0049939 35.8000621 29.6156924 35.8000621 32.1590206 35.8000621 34.7584921 37.9050663 36.4542237 41.1181456 36.4542237 45.3003752 36.4542237 48.5690118 33.5151688 48.5690118 29.6440332ZM59.9371081 51.7142036 59.9371081 46.7687236C60.3794773 46.8815593 61.3764168 46.8815593 61.8754194 46.8815593 64.6450534 46.8815593 66.1409954 45.6949175 67.0545885 42.6430377 67.0545885 42.5863454 67.5813697 40.8344706 67.5813697 40.8061298L57.0563385 11.0492717 63.5369782 11.0492717 70.9055635 35.2392519 71.015623 35.2392519 78.3842189 11.0492717 84.6992419 11.0492717 73.785257 42.3317952C71.2934516 49.5382613 68.4126819 51.85538 62.3744219 51.85538 61.8754299 51.85538 60.3794878 51.7986877 59.9371081 51.7142036Z" transform="translate(42.3 3.109)"/></g></g></g></svg>