<svg width="175" height="114" viewBox="0 0 175 114" xmlns="http://www.w3.org/2000/svg"><g fill="none" fill-rule="evenodd"><rect fill="#FFF" width="175" height="114" rx="12"/><path d="M86.9995707,10 C90.888563,10 92.1103921,12.7620948 93.1310663,15.5260372 C93.5650391,16.6973871 103.665617,44.1298845 103.965486,44.9520465 C104.049301,45.1811433 103.995287,45.5580445 103.637678,45.6947636 C103.28007,45.8314827 98.0314202,47.8527079 97.7427258,47.9617137 C97.4521689,48.0707194 97.1262237,47.9099821 97.0181961,47.6254586 C96.9101686,47.3409352 94.7347169,41.3603995 94.4907236,40.689737 C93.7680564,40.689737 80.2497104,40.689737 79.5270432,40.689737 C79.2793248,41.3603995 77.0833852,47.3501729 76.9828078,47.6254586 C76.8822304,47.8988968 76.5674604,48.0836523 76.2601406,47.9617137 C75.9528208,47.8416226 70.6799581,45.8148547 70.3689132,45.6947636 C70.067181,45.5820627 69.9293527,45.2402651 70.0355178,44.9520465 C70.4061641,43.9229583 80.3521503,16.9338741 80.8606249,15.5260372 C81.8459108,12.8045886 83.1124409,10 86.9995707,10 Z M69.5715447,59 C69.253811,59 69,59.2377229 69,59.5318837 L69,65.4664061 C69,65.7639873 69.2556911,66 69.5715447,66 L105.434096,66 C105.748069,66 106,65.7639873 106,65.4664061 L106,59.5318837 C106,59.2377229 105.748069,59 105.434096,59 L69.5715447,59 M86.9607449,18 L82,33 L92,33 L87.0228227,18 L86.9607449,18 L86.9607449,18 Z" fill="#EF3124" fill-rule="nonzero"/><g transform="translate(33 87)" fill="#EF3124" fill-rule="nonzero"><path d="M74.3137649 9.75456815C74.3137649 11.0448328 73.6032751 11.8947582 72.2963077 11.8947582 71.777692 11.8947582 71.3536227 11.8961558 70.6778928 11.7116326L70.6778928 7.80589116C70.9754364 7.75696455 71.59277 7.66190714 72.2963077 7.68567149 73.624131 7.73599601 74.3137649 8.36085871 74.3137649 9.75456815ZM77 9.56305542C77 7.17124314 75.605438 5.52171742 72.6758844 5.52171742 71.955662 5.52171742 71.4551213 5.59021468 70.6778928 5.7761358L70.6723312 2.3568647C71.1547968 2.28836745 71.9820794 2.22685971 72.8927854 2.22685971 73.7534374 2.22685971 74.8448942 2.27438842 75.8028735 2.39181228L75.8710026.39560659C74.7823266.15097354 73.204233 0 71.9779082 0 70.771049 0 68.8940213.303344983 68.0013904.547978033L68 13.2535197C69.3931716 13.7665502 70.7515835 14 72.1489263 14 75.3412637 14 77 12.2959561 77 9.56305542ZM45.4114728 8.90221707C45.4114728 10.6882859 44.708416 11.8400893 43.5510123 11.8400893 43.0647082 11.8400893 42.8076618 11.814775 42.2588329 11.6333554L42.2588329 6.26811714C42.8618499 5.97700199 43.1855895 5.9812177 43.6718936 5.9812177 44.8320762 5.9812177 45.4114728 6.94879219 45.4114728 8.90221707M36.5926955 8.96269027C36.5926955 7.01067174 37.1734815 5.9812177 38.3308853 5.9812177 38.8185788 5.9812177 39.1437078 5.97700199 39.7453355 6.26811714L39.7453355 11.6333554C39.1992854 11.814775 38.9394601 11.8400893 38.4517666 11.8400893 37.1331878 11.8400893 36.5926955 10.7487591 36.5926955 8.96269027M42.2574434 17 42.2574434 13.5094308C42.5770147 13.7006949 43.2147678 13.9819656 44.2888051 13.9819656 46.4257642 13.9819656 48 12.1860523 48 8.90221707 48 5.36242555 46.4368797 3.84918928 43.8650258 3.84918928 43.2119889 3.84918928 42.7868202 3.91669424 42.256054 4.17124421L42.256054 0 39.743946 0 39.743946 4.17124421C39.2159587 3.91669424 38.7880111 3.84918928 38.1363636 3.84918928 35.5658992 3.84918928 34 5.42571145 34 8.96269027 34 12.2479318 35.4144502 13.9819656 37.708416 13.9819656 38.7880111 13.9819656 39.4243748 13.7006949 39.743946 13.5094308L39.743946 17 42.2574434 17M19.3738558 13.8088907 19.3738558 6.28777178C18.6801028 6.18944744 18.563032 6.16728985 18.0051389 6.16728985 17.4501365 6.16728985 17.3128312 6.18944744 16.6161876 6.28777178L16.6161876 9.76097493C16.6161876 12.5542169 15.8227076 13.4322116 13.7154328 14L13 12.5292896C13.530432 12.1927711 13.7241047 11.7565434 13.8686366 11.3923279 14.0146138 10.9796427 14.0377389 10.5932696 14.0377389 9.30951392L14.0377389 4.58856114C15.4787217 4.17726077 16.5598201 4 18.0051389 4 19.4504577 4 20.5590172 4.17726077 22 4.58856114L22 13.8088907 19.3738558 13.8088907ZM55.5906404 11.7708679C55.0009852 11.961581 54.6123153 12.0044223 54.146798 12.0044223 53.1862069 12.0044223 52.6408867 11.6506357 52.6408867 10.7302377 52.6408867 9.77252626 53.3295567 9.44776119 54.6596059 9.44776119 54.9788177 9.44776119 55.3009852 9.49198452 55.4517241 9.54173577L55.4517241 10.2285793C55.453202 10.972084 55.4916256 11.4557767 55.5906404 11.7708679ZM59 12.8709232C58.2935961 11.8634605 58.108867 11.2705915 58.108867 10.0033167L58.108867 7.43145384C58.108867 6.04256495 57.9359606 5.53123273 57.5428571 5.02266446 56.9990148 4.30679934 56.0901478 4 54.4157635 4 53.2334975 4 52.0719212 4.11885019 50.9635468 4.38280818L51.3610837 6.22498618C52.1162562 6.12686567 52.9024631 6.04118297 53.4714286 6.04118297 55.2477833 6.04118297 55.453202 6.2830293 55.453202 7.52681039L55.453202 7.99391929C55.0586207 7.8944168 54.6137931 7.8225539 54.0965517 7.8225539 51.4128079 7.8225539 50 9.04698729 50 11.0660586 50 12.9662797 51.5073892 14 53.3591133 14 54.0463054 14 54.7615764 13.8811498 55.3305419 13.6669431 55.6704433 13.5273632 55.8211823 13.4472084 56.264532 13.1735766 56.5334975 13.541183 57.0669951 13.9129353 57.2857143 13.9778883L59 12.8709232ZM84.5917597 11.7708679C84.0022981 11.961581 83.6137557 12.0044223 83.1454366 12.0044223 82.1836835 12.0044223 81.6429744 11.6506357 81.6429744 10.7302377 81.6429744 9.77252626 82.3314183 9.44776119 83.6595535 9.44776119 83.9816152 9.44776119 84.3021996 9.49198452 84.4499343 9.54173577L84.4499343 10.2285793C84.4514117 10.972084 84.4927774 11.4557767 84.5917597 11.7708679ZM88 12.8709232C87.2893959 11.8634605 87.1047275 11.2705915 87.1047275 10.0033167L87.1047275 7.43145384C87.1047275 6.04256495 86.9363099 5.53123273 86.5403808 5.02266446 85.996717 4.30679934 85.0896257 4 83.4157912 4 82.2309586 4 81.0741957 4.11885019 79.9632305 4.38280818L80.3606369 6.22498618C81.1126067 6.12686567 81.9029875 6.04118297 82.4702889 6.04118297 84.2431057 6.04118297 84.448457 6.2830293 84.448457 7.52681039L84.448457 7.99391929C84.0540053 7.8944168 83.6108011 7.8225539 83.0937295 7.8225539 80.4108667 7.8225539 79 9.04698729 79 11.0660586 79 12.9662797 80.509849 14 82.3550558 14 83.0434997 14 83.7600131 13.8811498 84.3258372 13.6669431 84.6685817 13.5273632 84.8163165 13.4472084 85.2580433 13.1735766 85.5269206 13.541183 86.064675 13.9129353 86.281845 13.9778883L88 12.8709232ZM29.9860913 10.4195628C29.9860913 11.3752803 29.6009272 12.0297085 28.2014979 12.0297085 27.7296719 12.0297085 27.5370899 12.0297085 26.9240371 11.8797646L26.9240371 9.08688341C27.6831312 8.95936099 27.750535 8.93693946 28.2014979 8.93693946 29.5383381 8.93693946 29.9860913 9.5044843 29.9860913 10.4195628ZM24.0128388 4.00140135 24 13.2628924C25.381776 13.7729821 26.8999643 14 28.2496434 14 31.3437946 14 33 12.6042601 33 10.3018498 33 8.21804933 31.5347718 6.92881166 28.7936876 6.92881166 28.0971826 6.92881166 27.6895506 7.00868834 26.9256419 7.17124439L26.9256419 4 24.0128388 4 24.0128388 4.00140135Z"/><polygon points="95.1234828 14 95.1234828 9.9146165 91.8701847 9.9146165 91.8701847 14 89 14 89 4 91.8701847 4 91.8701847 7.78002894 95.1234828 7.78002894 95.1234828 4 98 4 98 14"/><path d="M103.964225 13.997156C103.964225 13.997156 103.024361 11.8669646 102.529131 10.9355392 102.107496 10.1576923 101.969506 9.97425124 101.173765 9.97425124L100.79506 9.97993934 100.79506 13.9957339 98 13.9957339 98 4.16955099 100.79506 4.16955099 100.79506 7.88245456 101.261158 7.88245456C101.981772 7.88245456 102.113629 7.65208674 102.381942 7.13304813 102.642589 6.62680774 102.849574 6.22721911 103.110221 5.73093288 103.355537 5.26593117 103.554855 4.87060862 103.841567 4.60326818 104.211073 4.25487241 104.602044 4.05721113 105.354855 4.01597244 105.810221 3.99037602 106.251789 3.99322007 106.651959 4.04156887L106.510903 5.83047453C106.510903 5.83047453 106.13833 5.74373109 105.863884 5.97409891 105.584838 6.20162269 105.445315 6.40639408 104.968484 7.36768202 104.47632 8.34887829 104.017888 8.67309967 103.444463 8.77264132L103.444463 8.81814607C104.3046 9.00869723 104.687905 9.54053405 105.10954 10.3126929 105.480579 10.9924201 107 14 107 14L103.964225 14 103.964225 13.997156ZM9.88190782 14 13 14 8.29156157.258916777C7.79672094.0995833757 7.17667966 0 6.52384774 0 5.80990598 0 5.55503325.0910476578 4.99461133.258916777L0 14 2.9869296 14C2.9869296 14 3.38786975 12.7964638 3.87674845 11.3012905L9.04127494 11.3012905C9.50779638 12.7950412 9.88190782 14 9.88190782 14ZM4.63689521 8.9980693C4.63689521 8.9980693 5.49839486 6.24387765 5.62955744 5.81424652 5.97833066 4.69322223 6.5 2.92917386 6.5 2.92917386L6.58495758 2.92917386C6.58495758 2.92917386 7.06489337 4.75866274 7.37789498 5.7985977 7.50011465 6.20262168 8.32286173 8.99949192 8.32286173 8.99949192L4.63689521 8.99949192 4.63689521 8.9980693ZM63 8.99913756C63 10.1082363 62.1053541 11 61.0017271 11 59.8981002 11 59 10.1082363 59 8.99913756 59 7.9003881 59.8981002 7 61.0017271 7 62.1053541 7 63 7.9003881 63 8.99913756Z"/></g></g></svg>