<svg width="175" height="114" viewBox="0 0 175 114" xmlns="http://www.w3.org/2000/svg"><g fill="none" fill-rule="evenodd"><rect fill="#FFF" width="175" height="114" rx="12"/><g transform="translate(15 32)" fill="#000" fill-rule="nonzero"><g transform="translate(45 36)"><path d="M0 0 7.67383918 0C12.3035108 0 15.7916195 3.46391753 15.7916195 7.79381443 15.7916195 12.1237113 12.3669309 15.6494845 7.67383918 15.6494845L4.18573046 15.6494845 4.18573046 21.8969072 0 21.8969072 0 0ZM4.18573046 3.77319588 4.18573046 11.814433 7.35673839 11.814433C9.83012458 11.814433 11.5424689 10.0206186 11.5424689 7.79381443 11.5424689 5.56701031 9.83012458 3.77319588 7.35673839 3.77319588L4.18573046 3.77319588ZM16.8697622 13.1752577C16.8697622 7.36082474 21.2457531 4.02061856 25.8120045 4.02061856 28.1585504 4.02061856 30.3148358 5.01030928 31.583239 6.49484536L31.583239 4.39175258 35.7055493 4.39175258 35.7055493 21.9587629 31.583239 21.9587629 31.583239 19.6701031C30.2514156 21.2783505 28.0951302 22.3298969 25.7485844 22.3298969 21.3725934 22.2680412 16.8697622 18.8659794 16.8697622 13.1752577ZM31.7734994 13.1134021C31.7734994 10.1443299 29.4903737 7.73195876 26.382786 7.73195876 23.3386183 7.73195876 20.9286523 10.0824742 20.9286523 13.1134021 20.9286523 16.1443299 23.2751982 18.556701 26.382786 18.556701 29.4903737 18.556701 31.7734994 16.1443299 31.7734994 13.1134021Z"/><polygon points="44.7746319 21.0309278 37.4178935 4.32989691 41.8573046 4.32989691 46.8674972 16.1443299 51.6240091 4.32989691 56 4.32989691 45.2819932 30 41.0962627 30"/></g><path d="M5.51903114,6.17231638 C5.39359862,5.71751412 5.45631488,5.26271186 5.51903114,5.06779661 C5.64446367,4.35310734 6.08347751,3.63841808 7.40051903,3.63841808 C8.59212803,3.63841808 9.34472318,4.4180791 9.34472318,5.58757062 C9.34472318,5.97740113 9.34472318,6.88700565 9.34472318,6.88700565 L14.4874567,6.88700565 L14.4874567,5.39265537 C14.4874567,0.714689266 10.4108997,0 7.46323529,0 C3.76297578,0 0.752595156,1.23446328 0.188148789,4.8079096 C0.062716263,5.78248588 0,6.62711864 0.250865052,7.73163842 C1.12889273,12.1497175 8.52941176,13.3841808 9.59558824,16.1779661 C9.78373702,16.6977401 9.72102076,17.3474576 9.6583045,17.7372881 C9.47015571,18.4519774 9.03114187,19.1666667 7.65138408,19.1666667 C6.33434256,19.1666667 5.5817474,18.3870056 5.5817474,17.2175141 L5.5817474,15.1384181 L0,15.1384181 L0,16.7627119 C0,21.5706215 3.63754325,23 7.52595156,23 C11.2889273,23 14.3620242,21.700565 14.8637543,18.0621469 C15.1146194,16.1779661 14.9264706,15.0084746 14.8637543,14.5536723 C13.9857266,10.0056497 6.14619377,8.70621469 5.51903114,6.17231638 Z M73.0017301,6.23728814 C72.9390138,5.78248588 72.9390138,5.39265537 73.0017301,5.13276836 C73.1271626,4.4180791 73.5661765,3.70338983 74.883218,3.70338983 C76.074827,3.70338983 76.7647059,4.48305085 76.7647059,5.65254237 C76.7647059,6.04237288 76.7647059,6.9519774 76.7647059,6.9519774 L81.9074394,6.9519774 L81.9074394,5.45762712 C81.9074394,0.844632768 77.8935986,0.129943503 75.0086505,0.129943503 C71.3711073,0.129943503 68.3607266,1.36440678 67.7962803,4.87288136 C67.6708478,5.84745763 67.6081315,6.6920904 67.8589965,7.73163842 C68.7370242,12.0847458 76.074827,13.319209 77.0782872,16.1129944 C77.266436,16.6327684 77.2037197,17.2824859 77.1410035,17.6723164 C76.9528547,18.3870056 76.5138408,19.1016949 75.134083,19.1016949 C73.8170415,19.1016949 73.0644464,18.3220339 73.0644464,17.1525424 L73.0644464,15.0734463 L67.5454152,15.0734463 L67.5454152,16.6977401 C67.5454152,21.440678 71.1202422,22.8700565 75.0086505,22.8700565 C78.70891,22.8700565 81.7820069,21.5706215 82.283737,17.9971751 C82.5346021,16.1779661 82.3464533,14.9435028 82.2210208,14.4887006 C81.3429931,10.0706215 73.5661765,8.70621469 73.0017301,6.23728814 Z M120.101644,17.9322034 L115.209775,0.649717514 L107.495675,0.649717514 L107.495675,21.8954802 L112.575692,21.8954802 L112.262111,4.02824859 L117.530277,21.8954802 L124.930796,21.8954802 L124.930796,0.649717514 L119.788062,0.649717514 L120.101644,17.9322034 Z M22.2015571,0.649717514 L18.3758651,22.1553672 L23.9576125,22.1553672 L26.8425606,2.2740113 L29.6647924,22.1553672 L35.2465398,22.1553672 L31.4208478,0.649717514 L22.2015571,0.649717514 Z M53.5596886,0.649717514 L50.9256055,17.4774011 L48.2915225,0.649717514 L39.8875433,0.649717514 L39.4485294,22.1553672 L44.6539792,22.1553672 L44.7794118,2.2740113 L48.3542388,22.1553672 L53.6224048,22.1553672 L57.1972318,2.2740113 L57.3226644,22.1553672 L62.5281142,22.1553672 L62.0891003,0.649717514 L53.5596886,0.649717514 Z M101.725779,0.649717514 L96.4576125,0.649717514 L96.4576125,16.5677966 C96.4576125,16.8276836 96.4576125,17.1525424 96.3948962,17.4124294 C96.2694637,17.9322034 95.8304498,18.9717514 94.3879758,18.9717514 C92.9455017,18.9717514 92.5064879,17.9322034 92.3810554,17.4124294 C92.3183391,17.1525424 92.3183391,16.8926554 92.3183391,16.5677966 L92.3183391,0.649717514 L87.050173,0.649717514 L87.050173,16.0480226 C87.050173,16.4378531 87.050173,17.2824859 87.1128893,17.4774011 C87.4891869,21.5056497 90.4995675,22.8050847 94.3252595,22.8050847 C98.1509516,22.8050847 101.224048,21.5056497 101.53763,17.4774011 C101.53763,17.2824859 101.600346,16.4378531 101.600346,16.0480226 L101.600346,0.649717514 L101.725779,0.649717514 Z M137.78763,10.0706215 L137.78763,13.1892655 L139.919983,13.1892655 L139.919983,16.3079096 C139.919983,16.5677966 139.919983,16.8926554 139.857266,17.1525424 C139.79455,17.7372881 139.230104,18.7118644 137.724913,18.7118644 C136.219723,18.7118644 135.717993,17.7372881 135.592561,17.1525424 C135.529844,16.8926554 135.529844,16.6327684 135.529844,16.3079096 L135.529844,6.49717514 C135.529844,6.17231638 135.529844,5.78248588 135.592561,5.45762712 C135.717993,4.93785311 136.157007,3.89830508 137.662197,3.89830508 C139.230104,3.89830508 139.669118,5.00282486 139.731834,5.45762712 C139.79455,5.78248588 139.79455,6.30225989 139.79455,6.30225989 L139.79455,7.47175141 L145,7.47175141 L145,6.75706215 C145,6.75706215 145,6.04237288 144.937284,5.32768362 C144.560986,1.29943503 141.362457,0 137.662197,0 C133.961938,0 130.826125,1.29943503 130.387111,5.32768362 C130.324394,5.71751412 130.261678,6.36723164 130.261678,6.75706215 L130.261678,15.7881356 C130.261678,16.1779661 130.261678,16.5028249 130.324394,17.2175141 C130.637976,21.1158192 133.961938,22.5451977 137.599481,22.5451977 C141.29974,22.5451977 144.560986,21.180791 144.874567,17.2175141 C144.937284,16.5028249 144.937284,16.1779661 144.937284,15.7881356 L144.937284,10.0706215 L137.78763,10.0706215 Z"/></g></g></svg>