<svg width="175" height="114" viewBox="0 0 175 114" xmlns="http://www.w3.org/2000/svg" xmlns:xlink="http://www.w3.org/1999/xlink"><defs><rect id="a" x="0" y="0" width="175" height="114" rx="12"/></defs><g fill="none" fill-rule="evenodd"><mask id="b" fill="#fff"><use xlink:href="#a"/></mask><use fill="#FFF" xlink:href="#a"/><g mask="url(#b)"><g transform="translate(24 -7)"><rect width="127" height="127"/><path d="M101.877294,104.350909 L101.718278,104.350909 L101.718278,104.776209 L101.638769,104.776209 L101.638769,104.350909 L101.479753,104.350909 L101.479753,104.271616 L101.884522,104.271616 L101.877294,104.350909 Z M102.498904,104.776209 L102.419396,104.776209 L102.419396,104.365326 L102.274836,104.725749 L102.188099,104.725749 L102.043539,104.365326 L102.043539,104.776209 L101.96403,104.776209 L101.96403,104.271616 L102.086907,104.271616 L102.231467,104.632039 L102.376028,104.271616 L102.498904,104.271616 L102.498904,104.776209 Z M26.3660971,104.776209 L25.260209,104.776209 L25.260209,92.1613878 L26.3660971,92.1613878 L26.3660971,104.776209 Z M34.7722924,92.1613878 C35.739633,92.1469203 36.7024698,92.2955856 37.620135,92.6011044 C38.4234277,92.8657714 39.1621311,93.2955158 39.788543,93.8625865 C40.3851366,94.4174523 40.8515944,95.0967856 41.1546401,95.8521239 C41.7928556,97.5385154 41.7928556,99.3990811 41.1546401,101.085473 C40.8518056,101.840923 40.3853181,102.5203 39.788543,103.07501 C39.1621311,103.642081 38.4234277,104.071825 37.620135,104.336492 C36.7024698,104.642011 35.739633,104.790676 34.7722924,104.776209 L30.1535832,104.776209 L30.1535832,92.1613878 L34.7722924,92.1613878 Z M31.2594713,93.2066158 L31.2594713,103.730981 L34.7722924,103.730981 C35.6021135,103.745718 36.4283593,103.618947 37.2153655,103.35614 C37.8764406,103.132102 38.4824371,102.770962 38.9934601,102.296495 C39.4785392,101.833463 39.8517496,101.266535 40.0848921,100.638547 C40.5745996,99.2382142 40.5745996,97.7137992 40.0848921,96.313466 C39.8513657,95.6835746 39.4782838,95.1143776 38.9934601,94.6483096 C38.4837796,94.1720633 37.8773762,93.8106808 37.2153655,93.5886646 C36.4298071,93.3308732 35.6063879,93.2066158 34.7795204,93.2210327 L31.2594713,93.2066158 Z M55.1119601,92.0172184 C55.64245,92.0157349 56.1712888,92.0762175 56.6876699,92.1974301 C57.1887167,92.3118154 57.6740933,92.4860781 58.1332753,92.7164399 C58.5664622,92.9357485 58.9696947,93.2094954 59.3331278,93.5309969 C59.6889989,93.8461656 59.9980842,94.2102392 60.2510872,94.6122673 L59.3331278,95.2249871 C59.1160971,94.8942397 58.8560289,94.5936677 58.5597289,94.331137 C58.2615956,94.0653723 57.9313739,93.8377484 57.5767173,93.6535409 C57.210043,93.4652997 56.821667,93.3224736 56.4202329,93.2282412 C56.0012927,93.1274463 55.5718312,93.0766312 55.1408722,93.0768633 C54.4212057,93.0708371 53.7071012,93.2029928 53.0375164,93.4661207 C52.4049779,93.7130252 51.8294943,94.0858321 51.3461581,94.561808 C50.8599851,95.0479484 50.4765605,95.6264315 50.2185859,96.2630067 C49.6695983,97.6776006 49.6695983,99.2455789 50.2185859,100.660173 C50.4763859,101.29684 50.8598323,101.875355 51.3461581,102.361372 C51.8294943,102.837347 52.4049779,103.210154 53.0375164,103.457059 C53.7071012,103.720187 54.4212057,103.852342 55.1408722,103.846316 C55.5690871,103.847612 55.9959999,103.799231 56.4130049,103.702147 C57.2172448,103.526115 57.9634142,103.149078 58.581413,102.60646 C58.8794809,102.342952 59.139727,102.039749 59.3548119,101.705401 L60.2583152,102.361372 C59.9955509,102.753914 59.682045,103.110199 59.3258998,103.421017 C58.9632743,103.73616 58.5626383,104.004949 58.1332753,104.221157 C57.6883801,104.447783 57.2175154,104.619643 56.7310381,104.732958 C55.3558564,105.045338 53.918385,104.939891 52.6038347,104.430202 C51.8381655,104.128199 51.1403747,103.677333 50.5510751,103.103844 C49.9644559,102.522482 49.5021789,101.828491 49.192206,101.063847 C48.5362288,99.3881952 48.5362288,97.5277759 49.192206,95.8521239 C49.5021789,95.0874803 49.9644559,94.3934888 50.5510751,93.8121272 C51.1403747,93.2386383 51.8381655,92.7877717 52.6038347,92.4857689 C53.4118894,92.1699233 54.272994,92.010891 55.1408722,92.0172184 L55.1119601,92.0172184 Z M63.9735211,97.7839937 C64.135421,97.5166215 64.3350296,97.2738551 64.5662193,97.0631468 C64.7828734,96.8647431 65.0261367,96.6973456 65.289022,96.5657624 C65.5536364,96.4370819 65.8326757,96.3402873 66.120245,96.2774236 C66.4051725,96.2153342 66.6959584,96.1839177 66.9876083,96.1837135 C67.479674,96.1786572 67.9688596,96.2591544 68.4332137,96.421593 C68.8536748,96.5683035 69.2397831,96.7988511 69.5680139,97.0991891 C69.8851506,97.3998981 70.1319378,97.766616 70.2908166,98.173251 C70.4715986,98.6321238 70.5600165,99.1220053 70.5510255,99.6149448 L70.5510255,104.812251 L69.5174177,104.812251 L69.5174177,99.9321175 C69.5229769,99.5402439 69.4618776,99.1502663 69.336717,98.7787624 C69.2265427,98.4515697 69.043704,98.1534127 68.801843,97.9065376 C68.5591528,97.662895 68.2654236,97.4758109 67.9417078,97.358694 C67.5706871,97.2272307 67.1788932,97.1637365 66.7852235,97.1712738 C66.404781,97.1683974 66.0271863,97.2368652 65.6721074,97.3731109 C65.3349779,97.5025096 65.0276285,97.6986809 64.768604,97.9497885 C64.508314,98.204244 64.3018557,98.5081911 64.1614498,98.8436386 C64.0101233,99.2042134 63.9338894,99.5917085 63.9373809,99.9825768 L63.9373809,104.812251 L62.9110011,104.812251 L62.9110011,91.8370067 L63.9373809,91.8370067 L63.9735211,97.7839937 Z M77.3020027,96.1837135 C77.8436977,96.1784097 78.3804872,96.2864593 78.8777125,96.5008862 C79.3546679,96.7084352 79.783004,97.0128603 80.1353892,97.3947363 C80.4997687,97.7938648 80.7843515,98.2587306 80.9738403,98.7643455 C81.1843684,99.3219711 81.2921111,99.912952 81.2918739,100.508795 C81.2918739,100.588088 81.2918739,100.660173 81.2918739,100.732258 C81.2918739,100.804342 81.2918739,100.869218 81.2918739,100.934095 L74.165039,100.934095 C74.192846,101.388263 74.305616,101.833233 74.4975282,102.246036 C74.6713113,102.61714 74.9169562,102.950314 75.2203309,103.226388 C75.5170392,103.492798 75.8633041,103.698525 76.2394827,103.831899 C76.6313294,103.972063 77.0447346,104.04281 77.4610193,104.040945 C78.0108241,104.050197 78.5560121,103.939486 79.0584132,103.716564 C79.5310113,103.497181 79.9615314,103.197121 80.3305459,102.829922 L80.879876,103.550769 C80.6299496,103.804993 80.3537463,104.032123 80.0558809,104.228365 C79.7856683,104.403083 79.4972746,104.548098 79.1957457,104.660873 C78.9082602,104.766847 78.6102064,104.841763 78.3066984,104.884336 C78.0049679,104.926723 77.7006752,104.948399 77.395967,104.949212 C76.8096615,104.956087 76.2276855,104.848333 75.6829246,104.632039 C75.1757689,104.429516 74.7157194,104.125282 74.3312836,103.738189 C73.9463219,103.343986 73.6462375,102.875453 73.4494643,102.361372 C73.2323757,101.795539 73.1244711,101.193886 73.1314311,100.588088 C73.1245506,99.9869831 73.2324832,99.3900675 73.4494643,98.8292217 C73.639219,98.3059607 73.9316242,97.8256552 74.3095995,97.4163617 C74.6885876,97.0258682 75.1436358,96.7167821 75.6467845,96.5080946 C76.1786588,96.2795274 76.7517628,96.1617825 77.3309148,96.1620875 L77.3020027,96.1837135 Z M77.3020027,97.0919806 C76.8960117,97.0883547 76.4932587,97.1642789 76.1166063,97.3154432 C75.7647844,97.4577742 75.4434169,97.6657309 75.1697347,97.9281631 C74.893601,98.1955477 74.6683059,98.5105957 74.5047563,98.8580556 C74.3279994,99.2331837 74.2156093,99.6352311 74.172267,100.047453 L80.2510376,100.047453 C80.2212885,99.6323457 80.1210814,99.2252894 79.9546885,98.8436386 C79.8028177,98.4967457 79.5870672,98.1813308 79.3186222,97.9137461 C78.7830837,97.3827559 78.0571574,97.0869434 77.3020027,97.0919806 L77.3020027,97.0919806 Z M87.594713,96.1837135 C88.1970111,96.1783602 88.7942654,96.293566 89.3511235,96.5225116 C89.8800208,96.7404384 90.3521604,97.0757119 90.7316767,97.5028634 L90.0666982,98.2237103 C89.7462231,97.9007122 89.3689062,97.6392598 88.953582,97.4524041 C88.5180082,97.2647308 88.0474615,97.1713675 87.5730289,97.1784823 C87.1285461,97.1763088 86.6882932,97.2646117 86.2792121,97.4379872 C85.8873896,97.6063785 85.5334515,97.8515038 85.2383762,98.1588341 C84.9267757,98.4669445 84.6809084,98.8347474 84.5155735,99.2401044 C84.1839486,100.120747 84.1839486,101.091472 84.5155735,101.972114 C84.825778,102.776944 85.4525361,103.420237 86.2503,103.752606 C86.6591988,103.926568 87.0995747,104.014896 87.5441168,104.012111 C88.0245255,104.017419 88.5004039,103.919058 88.939126,103.723772 C89.3572404,103.537409 89.7389845,103.27872 90.0666982,102.959674 L90.7099926,103.680521 C90.3286418,104.105633 89.8570038,104.44055 89.3294394,104.660873 C88.7751104,104.889814 88.1802157,105.005039 87.5802569,104.999671 C86.9784845,105.006921 86.3813251,104.894185 85.8238464,104.668082 C84.7808614,104.24534 83.957713,103.413994 83.5470179,102.36858 C83.1196156,101.249638 83.1196156,100.01304 83.5470179,98.8940979 C83.9553285,97.8454834 84.7789469,97.0110557 85.8238464,96.5873878 C86.3834314,96.3250757 86.9911213,96.1803117 87.609169,96.1620881 L87.594713,96.1837135 Z M94.1939015,99.8960751 L95.5744547,99.8960751 L99.1884681,96.2918406 L100.489513,96.2918406 L96.4418179,100.292541 L100.561793,104.769 L99.2535204,104.769 L95.6395069,100.797134 L94.2589538,100.797134 L94.2589538,104.769 L93.1747497,104.769 L93.1747497,91.7937558 L94.2011296,91.7937558 L94.1939015,99.8960751 Z M35.9576888,85.680974 L35.9576888,81.3558926 C36.0088199,80.6200485 35.7399892,79.8978422 35.2197803,79.3735218 C34.6995715,78.8492013 33.9782909,78.5734709 33.2399507,78.6166743 C32.2669384,78.553058 31.3363266,79.0226292 30.8113336,79.842114 C30.3326907,79.0470627 29.4562798,78.5768515 28.5272771,78.6166743 C27.7184012,78.5758938 26.9483591,78.9653584 26.5034296,79.6402769 L26.5034296,78.7896775 L25,78.7896775 L25,85.680974 L26.5178856,85.680974 L26.5178856,81.8604854 C26.4525142,81.3833498 26.6040999,80.9020165 26.9312762,80.5478373 C27.2584525,80.1936581 27.7270689,80.0036022 28.2092439,80.0295342 C29.2067117,80.0295342 29.7126735,80.6782965 29.7126735,81.8460685 L29.7126735,85.680974 L31.2305592,85.680974 L31.2305592,81.8604854 C31.1678702,81.3838923 31.3203828,80.9041186 31.6469525,80.5505961 C31.9735222,80.1970736 32.4405042,80.006224 32.9219175,80.0295342 C33.9482973,80.0295342 34.4398031,80.6782965 34.4398031,81.8460685 L34.4398031,85.680974 L35.9576888,85.680974 Z M58.4079403,78.7680521 L55.9504112,78.7680521 L55.9504112,76.6775961 L54.4325255,76.6775961 L54.4325255,78.7680521 L53.0302883,78.7680521 L53.0302883,80.1160359 L54.4325255,80.1160359 L54.4325255,83.2589284 C54.4325255,84.8592085 55.0541359,85.8107463 56.8322305,85.8107463 C57.4965285,85.8129519 58.1479538,85.6280479 58.7115175,85.2772998 L58.2778359,83.9941923 C57.8844331,84.2520108 57.4317428,84.4058068 56.962335,84.4411173 C56.2395323,84.4411173 55.9648673,83.9797753 55.9648673,83.2877623 L55.9648673,80.1160359 L58.4079403,80.1160359 L58.4079403,78.7680521 Z M71.2304601,78.5950489 C70.4837451,78.5731477 69.7848424,78.9603764 69.4089973,79.6042346 L69.4089973,78.7680521 L67.9200237,78.7680521 L67.9200237,85.6593486 L69.4234533,85.6593486 L69.4234533,81.7956092 C69.4234533,80.656671 69.9149592,80.0223258 70.8690587,80.0223258 C71.1906222,80.0179391 71.5099064,80.0767244 71.8087022,80.195329 L72.2712959,78.7536352 C71.9279444,78.6311373 71.5662055,78.5677606 71.201548,78.566215 L71.2304601,78.5950489 Z M51.8448919,79.3158958 C50.9938821,78.8112864 50.0154421,78.5610832 49.0259614,78.5950489 C47.2767789,78.5950489 46.1347507,79.4312313 46.1347507,80.8008404 C46.1347507,81.9253616 46.9732018,82.6173746 48.5199995,82.8336287 L49.2428022,82.9345473 C50.0667973,83.0498828 50.4571108,83.2661369 50.4571108,83.6553942 C50.4571108,84.1888209 49.9077807,84.4915766 48.8814009,84.4915766 C48.0558174,84.5154094 47.2462067,84.2615037 46.5828883,83.7707297 L45.8600856,84.9385017 C46.7358434,85.5483314 47.7847803,85.8616557 48.8524888,85.8323519 C50.8474242,85.8323519 52.0039085,84.8952509 52.0039085,83.5833095 C52.0039085,82.2713681 51.0931771,81.7379414 49.5897475,81.5216873 L48.8669448,81.4207688 C48.2164224,81.3342671 47.6960045,81.2045147 47.6960045,80.7431727 C47.6960045,80.2818307 48.1875103,79.9358241 49.0115054,79.9358241 C49.7731049,79.9446474 50.5197025,80.1481652 51.1799134,80.5269186 L51.8448919,79.3158958 Z M92.1122298,78.5950489 C91.3655149,78.5731477 90.6666121,78.9603764 90.290767,79.6042346 L90.290767,78.7680521 L88.8017935,78.7680521 L88.8017935,85.6593486 L90.3052231,85.6593486 L90.3052231,81.7956092 C90.3052231,80.656671 90.7967289,80.0223258 91.7508284,80.0223258 C92.0723919,80.0179391 92.3916762,80.0767244 92.6904719,80.195329 L93.1530657,78.7536352 C92.8097141,78.6311373 92.4479752,78.5677606 92.0833177,78.566215 L92.1122298,78.5950489 Z M72.7411177,82.1992834 C72.7049615,83.178507 73.0842356,84.127594 73.785845,84.8135851 C74.4874543,85.4995762 75.4464394,85.858958 76.4274114,85.803518 C77.3301042,85.8493205 78.21724,85.5561233 78.9138527,84.9817525 L78.19105,83.7707297 C77.6713339,84.1659781 77.0375889,84.3833964 76.3840433,84.3906581 C75.2316795,84.2976712 74.3439965,83.3378679 74.3439965,82.1848665 C74.3439965,81.0318651 75.2316795,80.0720618 76.3840433,79.979075 C77.0375889,79.9863366 77.6713339,80.2037549 78.19105,80.5990033 L78.9138527,79.3879805 C78.21724,78.8136097 77.3301042,78.5204125 76.4274114,78.566215 C75.4464394,78.510775 74.4874543,78.8701568 73.785845,79.5561479 C73.0842356,80.242139 72.7049615,81.191226 72.7411177,82.1704496 L72.7411177,82.1992834 Z M86.8213141,82.1992834 L86.8213141,78.7536352 L85.3178845,78.7536352 L85.3178845,79.5898176 C84.7999265,78.9251608 83.99297,78.5496 83.1494764,78.5806319 C81.1535119,78.5806319 79.535463,80.1943027 79.535463,82.1848665 C79.535463,84.1754303 81.1535119,85.7891011 83.1494764,85.7891011 C83.99297,85.820133 84.7999265,85.4445723 85.3178845,84.7799154 L85.3178845,85.6160978 L86.8213141,85.6160978 L86.8213141,82.1992834 Z M81.2268213,82.1992834 C81.2936769,81.0680358 82.2549661,80.1975697 83.390452,80.2400738 C84.5259379,80.2825779 85.419093,81.2224605 85.4007292,82.3555233 C85.3823655,83.4885862 84.4592192,84.3991907 83.3229491,84.405075 C82.7443738,84.4123759 82.1890338,84.1783527 81.7910138,83.7595093 C81.3929937,83.340666 81.188469,82.7750704 81.2268213,82.1992834 L81.2268213,82.1992834 Z M63.0844737,78.5950489 C61.0885093,78.6229169 59.4931132,80.259179 59.5210567,82.2497427 C59.5490002,84.2403064 61.1897017,85.8313858 63.1856661,85.803518 C64.2170554,85.8396893 65.2256868,85.495835 66.0190527,84.8375831 L65.29625,83.7274789 C64.7254975,84.1839759 64.0184084,84.4376362 63.2868585,84.4483258 C62.2535155,84.536954 61.3371563,83.7892343 61.2196428,82.761544 L66.3587699,82.761544 C66.3587699,82.5741238 66.3587699,82.3867036 66.3587699,82.1848665 C66.3587699,80.0223258 65.0143569,78.5806319 63.0772457,78.5806319 L63.0844737,78.5950489 Z M63.0844737,79.9358241 C63.5388297,79.9261636 63.9784144,80.0969549 64.3064721,80.4106055 C64.6345299,80.7242562 64.8241718,81.1550582 64.8336563,81.608189 L61.2196428,81.608189 C61.2740904,80.645731 62.0895201,79.9029444 63.0555616,79.9358241 L63.0844737,79.9358241 Z M100.79309,82.2137004 L100.79309,76 L99.2896605,76 L99.2896605,79.6042346 C98.7717025,78.9395777 97.964746,78.564017 97.1212524,78.5950489 C95.1252879,78.5950489 93.507239,80.2087197 93.507239,82.1992834 C93.507239,84.1898472 95.1252879,85.803518 97.1212524,85.803518 C97.964746,85.8345499 98.7717025,85.4589892 99.2896605,84.7943323 L99.2896605,85.6305147 L100.79309,85.6305147 L100.79309,82.2137004 Z M95.1985973,82.2137004 C95.2654529,81.0824527 96.2267421,80.2119867 97.362228,80.2544908 C98.4977139,80.2969949 99.390869,81.2368774 99.3725052,82.3699403 C99.3541415,83.5030031 98.4309952,84.4136076 97.2947251,84.4194919 C96.7161498,84.4267929 96.1608098,84.1927697 95.7627898,83.7739263 C95.3647697,83.3550829 95.160245,82.7894873 95.1985973,82.2137004 Z M44.4361643,82.2137004 L44.4361643,78.7680521 L42.9327347,78.7680521 L42.9327347,79.6042346 C42.4147768,78.9395777 41.6078203,78.564017 40.7643267,78.5950489 C38.7683622,78.5950489 37.1503132,80.2087197 37.1503132,82.1992834 C37.1503132,84.1898472 38.7683622,85.803518 40.7643267,85.803518 C41.6078203,85.8345499 42.4147768,85.4589892 42.9327347,84.7943323 L42.9327347,85.6305147 L44.4361643,85.6305147 L44.4361643,82.2137004 Z M38.8416715,82.2137004 C38.9085272,81.0824527 39.8698164,80.2119867 41.0053022,80.2544908 C42.1407881,80.2969949 43.0339432,81.2368774 43.0155795,82.3699403 C42.9972157,83.5030031 42.0740694,84.4136076 40.9377993,84.4194919 C40.359224,84.4267929 39.8038841,84.1927697 39.405864,83.7739263 C39.007844,83.3550829 38.8033192,82.7894873 38.8416715,82.2137004 Z M103.293987,84.6573714 C103.387961,84.6562232 103.481257,84.6733629 103.568652,84.7078307 C103.651661,84.7416125 103.727643,84.7905007 103.792721,84.8520001 C103.856233,84.9141525 103.907692,84.9874662 103.94451,85.0682541 C104.018497,85.2384081 104.018497,85.4315269 103.94451,85.6016809 C103.907692,85.6824688 103.856233,85.7557825 103.792721,85.8179349 C103.727643,85.8794343 103.651661,85.9283225 103.568652,85.9621043 C103.48212,86.0001832 103.388569,86.0198249 103.293987,86.0197722 C103.014299,86.0176696 102.76093,85.8548292 102.643465,85.6016809 C102.570335,85.4313507 102.570335,85.2385843 102.643465,85.0682541 C102.680283,84.9874662 102.731741,84.9141525 102.795254,84.8520001 C102.860331,84.7905007 102.936314,84.7416125 103.019322,84.7078307 C103.106717,84.6733629 103.200014,84.6562232 103.293987,84.6573714 L103.293987,84.6573714 Z M103.293987,85.8756027 C103.36613,85.8760398 103.437554,85.8613023 103.5036,85.8323519 C103.565788,85.8046624 103.622186,85.7655346 103.669845,85.7170164 C103.857265,85.5130836 103.857265,85.2001022 103.669845,84.9961695 C103.6223,84.9475174 103.565874,84.9083707 103.5036,84.880834 C103.437489,84.8520876 103.366109,84.8373592 103.293987,84.8375806 C103.221929,84.8379629 103.150669,84.8526664 103.084375,84.880834 C103.019434,84.90739 102.960459,84.9466004 102.910902,84.9961695 C102.723481,85.2001022 102.723481,85.5130836 102.910902,85.7170164 C102.960581,85.7664373 103.019524,85.8056268 103.084375,85.8323519 C103.150086,85.8631889 103.221406,85.8803575 103.293987,85.8828112 L103.293987,85.8756027 Z M103.337356,85.0177949 C103.40483,85.0145315 103.47132,85.0349347 103.525284,85.0754626 C103.570172,85.1125113 103.594392,85.1688727 103.590337,85.2268405 C103.592435,85.2752491 103.574081,85.3223167 103.53974,85.3565929 C103.497845,85.3945426 103.4444,85.4173856 103.387952,85.4214691 L103.597565,85.6593486 L103.43132,85.6593486 L103.236163,85.4214691 L103.171111,85.4214691 L103.171111,85.6593486 L103.033778,85.6593486 L103.033778,85.0250033 L103.337356,85.0177949 Z M103.178339,85.1403388 L103.178339,85.3133421 L103.337356,85.3133421 C103.365652,85.3217557 103.395795,85.3217557 103.424092,85.3133421 C103.434401,85.2929387 103.434401,85.2688693 103.424092,85.2484659 C103.434401,85.2280625 103.434401,85.2039931 103.424092,85.1835897 C103.395795,85.175176 103.365652,85.175176 103.337356,85.1835897 L103.178339,85.1403388 Z" fill="#000" fill-rule="nonzero"/><rect fill="#FF5F00" fill-rule="nonzero" x="51" y="27" width="23" height="40"/><path d="M53.3210089,47.5035416 C53.3127185,39.6776378 56.8820637,32.2827905 63,27.450939 C52.6098954,19.2344377 37.6892884,20.4312421 28.7239808,30.2002704 C19.7586731,39.9692986 19.7586731,55.0307014 28.7239808,64.7997296 C37.6892884,74.5687579 52.6098954,75.7655623 63,67.549061 C56.88401,62.7187434 53.3148828,55.3269597 53.3210089,47.5035416 Z" fill="#EB001B" fill-rule="nonzero"/><path d="M102.475248 62.9929078 102.475248 62.1702128 102.785479 62.1702128 102.785479 62 102 62 102 62.1702128 102.310231 62.1702128 102.310231 62.9929078 102.475248 62.9929078ZM104 62.9929078 104 62 103.762376 62 103.485149 62.7092199 103.207921 62 102.963696 62 102.963696 62.9929078 103.135314 62.9929078 103.135314 62.248227 103.392739 62.893617 103.570957 62.893617 103.828383 62.248227 103.828383 63 104 62.9929078ZM105 47.5035412C105 57.2655595 99.4601933 66.1705224 90.7339394 70.4364581 82.0076855 74.7023937 71.6267671 73.5803609 64 67.5468913 70.1127658 62.712996 73.6818374 55.3229949 73.6818374 47.5 73.6818374 39.6770051 70.1127658 32.287004 64 27.4531087 71.6267671 21.4196391 82.0076855 20.2976063 90.7339394 24.5635419 99.4601933 28.8294776 105 37.7344405 105 47.4964588L105 47.5035412Z" fill="#F79E1B" fill-rule="nonzero"/></g></g></g></svg>