<svg width="175" height="114" viewBox="0 0 175 114" xmlns="http://www.w3.org/2000/svg"><g fill="none" fill-rule="evenodd"><rect fill="#FFF" width="175" height="114" rx="12"/><path d="M70.9164776,34.8111828 L52.3241354,79.3075269 L40.1944071,79.3075269 L31.0494467,43.7935484 C30.4906246,41.6040143 30.0106949,40.8060215 28.3210797,39.882724 C25.5664151,38.3790681 21.0103709,36.9743369 17,36.0972043 L17.2761239,34.8045878 L36.8020279,34.8045878 C39.2871429,34.8045878 41.529006,36.4665233 42.0944025,39.3419355 L46.9265707,65.0953405 L58.8656419,34.8111828 L70.9164776,34.8111828 Z M118.442659,64.7787814 C118.48868,53.0331183 102.249965,52.38681 102.36173,47.1437993 C102.394602,45.5478136 103.913283,43.8529032 107.22677,43.4176344 C108.870364,43.2 113.400111,43.0351254 118.541275,45.409319 L120.553035,35.9718996 C117.791796,34.9628674 114.241632,34 109.817075,34 C98.476272,34 90.4949766,40.0475986 90.4226585,48.713405 C90.3503403,55.1171326 96.1226446,58.6916129 100.468309,60.8217921 C104.938886,63.0047312 106.437844,64.4028674 106.418121,66.3483871 C106.391824,69.335914 102.854808,70.6483154 99.5544701,70.7010753 C93.7821658,70.793405 90.4358072,69.1380645 87.7666096,67.8916129 L85.689106,77.6389964 C88.3714524,78.8722581 93.315385,79.9472401 98.4499745,80 C110.520533,80 118.403213,74.0249462 118.442659,64.7787814 M148.388953,79.3075269 L159,79.3075269 L149.736701,34.8111828 L139.940877,34.8111828 C137.73846,34.8111828 135.884485,36.0972043 135.056114,38.0756989 L117.844391,79.3075269 L129.895227,79.3075269 L132.2883,72.6597849 L147.008334,72.6597849 L148.388953,79.3075269 Z M135.588638,63.5389247 L141.630492,46.8272401 L145.108338,63.5389247 L135.588638,63.5389247 Z M87.3129775,34.8111828 L77.8261494,79.3075269 L66.353859,79.3075269 L75.8472614,34.8111828 L87.3129775,34.8111828 Z" fill="#1A1F71" fill-rule="nonzero"/></g></svg>