<svg width="190" height="56" viewBox="0 0 190 56" fill="none" xmlns="http://www.w3.org/2000/svg">
<path d="M15.8342 29.0402L7.16597 6.88322H0.527344L13.5932 38.1313H17.9907L30.9297 6.88322H24.4179L15.8342 29.0402Z" fill="white"/>
<path d="M31.6568 22.613C31.6568 27.1374 33.1791 30.943 36.2658 34.0297C39.3526 37.1165 43.2004 38.6387 47.8094 38.6387C52.4184 38.6387 56.2663 37.0742 59.3953 33.9451C62.5666 30.8161 64.1311 27.0105 64.1311 22.5284C64.1311 18.0463 62.5666 14.2407 59.3953 11.0694C56.2663 7.89804 52.4184 6.33353 47.894 6.33353C43.3696 6.33353 39.5217 7.89804 36.3504 11.0694C33.2213 14.2407 31.6568 18.0885 31.6568 22.613ZM58.1268 22.5284C58.169 25.5306 57.1965 28.0254 55.2092 30.0127C53.2218 32.0001 50.8116 32.9726 47.894 32.9726C44.9764 32.9726 42.5662 32.0001 40.5788 30.0127C38.6337 28.0254 37.6612 25.5306 37.6612 22.5284C37.6612 19.5262 38.6337 17.0314 40.6211 15.0441C42.6084 13.0567 45.0186 12.0419 47.894 12.0419C50.727 12.0419 53.1372 13.0567 55.1246 15.0441C57.1119 17.0314 58.1268 19.5262 58.1268 22.5284Z" fill="white"/>
<path d="M81.2397 38.1313C85.9333 38.1313 89.6543 36.7359 92.3182 33.9451C95.0244 31.1544 96.3775 27.3488 96.3775 22.5707C96.3775 17.708 95.0667 13.9024 92.4028 11.1116C89.7389 8.2786 86.1024 6.88322 81.4934 6.88322H69.4424V38.1313H81.2397ZM75.1931 12.4225H81.4934C84.3265 12.4225 86.483 13.395 88.0475 15.2978C89.612 17.2006 90.3731 19.5685 90.3731 22.4438C90.3731 25.3614 89.5697 27.8139 88.0052 29.7167C86.4407 31.6195 84.2842 32.5921 81.4511 32.5921H75.1931V12.4225Z" fill="white"/>
<path d="M101.858 38.1313H107.651V6.88322H101.858V38.1313Z" fill="white"/>
<path d="M120.828 38.1313H126.663V12.4647H135.67V6.88322H111.821V12.4647H120.828V38.1313Z" fill="white"/>
<path d="M148.313 38.6387C151.611 38.6387 154.318 37.7507 156.389 36.0171C158.461 34.2834 159.518 32.0001 159.518 29.2516C159.518 25.9111 157.785 23.3318 154.36 21.5981C153.599 21.2176 152.372 20.6256 150.639 19.9068L147.341 18.3845C145.607 17.4966 144.761 16.3972 144.761 15.0864C144.761 13.099 146.453 11.7882 148.99 11.7882C151.231 11.7882 153.979 12.8453 155.713 14.8327L158.926 10.6888C156.305 7.81348 152.964 6.37581 148.905 6.37581C145.818 6.37581 143.324 7.2215 141.421 8.95515C139.518 10.6465 138.545 12.7607 138.545 15.3401C138.545 18.5537 140.195 21.133 143.45 23.0358C144.254 23.5009 145.48 24.0929 147.129 24.7695C148.778 25.4037 149.793 25.8266 150.216 26.038C152.161 27.0105 153.134 28.1945 153.134 29.5899C153.134 31.6618 151.188 33.2263 148.355 33.2263C144.93 33.2263 142.224 31.7041 140.237 28.7019L136.77 32.6766C139.264 36.5245 143.577 38.6387 148.313 38.6387Z" fill="white"/>
<path d="M189 38.1313L177.033 6.88322H172.594L160.5 38.1313H166.631L169.211 31.0275H180.289L182.869 38.1313H189ZM178.64 25.8266H170.902L174.792 15.1287L178.64 25.8266Z" fill="white"/>
<path d="M6.9198 47.1924V53.233H6.12244V48.4126L4.00822 51.8436H3.91157L1.79736 48.4126V53.233H1V47.1924H1.91817L3.9599 50.5026L6.00162 47.1924H6.9198Z" fill="white"/>
<path d="M14.5295 47.1924H15.3269V53.233H14.5295V52.049C13.9738 52.935 13.1603 53.3779 12.0891 53.3779C11.2273 53.3779 10.4904 53.0719 9.87828 52.4598C9.27422 51.8476 8.97219 51.0986 8.97219 50.2127C8.97219 49.3267 9.27422 48.5777 9.87828 47.9656C10.4904 47.3534 11.2273 47.0474 12.0891 47.0474C13.1603 47.0474 13.9738 47.4904 14.5295 48.3763V47.1924ZM10.4582 51.9161C10.9173 52.3752 11.4811 52.6047 12.1495 52.6047C12.818 52.6047 13.3818 52.3752 13.8409 51.9161C14.3 51.449 14.5295 50.8812 14.5295 50.2127C14.5295 49.5442 14.3 48.9804 13.8409 48.5213C13.3818 48.0541 12.818 47.8206 12.1495 47.8206C11.4811 47.8206 10.9173 48.0541 10.4582 48.5213C9.99909 48.9804 9.76955 49.5442 9.76955 50.2127C9.76955 50.8812 9.99909 51.449 10.4582 51.9161Z" fill="white"/>
<path d="M21.606 47.1924V47.9656H18.5374V53.233H17.74V47.1924H21.606Z" fill="white"/>
<path d="M28.2611 47.1924H29.0584V53.233H28.2611V52.049C27.7053 52.935 26.8919 53.3779 25.8207 53.3779C24.9589 53.3779 24.2219 53.0719 23.6098 52.4598C23.0057 51.8476 22.7037 51.0986 22.7037 50.2127C22.7037 49.3267 23.0057 48.5777 23.6098 47.9656C24.2219 47.3534 24.9589 47.0474 25.8207 47.0474C26.8919 47.0474 27.7053 47.4904 28.2611 48.3763V47.1924ZM24.1897 51.9161C24.6488 52.3752 25.2126 52.6047 25.8811 52.6047C26.5496 52.6047 27.1134 52.3752 27.5724 51.9161C28.0315 51.449 28.2611 50.8812 28.2611 50.2127C28.2611 49.5442 28.0315 48.9804 27.5724 48.5213C27.1134 48.0541 26.5496 47.8206 25.8811 47.8206C25.2126 47.8206 24.6488 48.0541 24.1897 48.5213C23.7306 48.9804 23.5011 49.5442 23.5011 50.2127C23.5011 50.8812 23.7306 51.449 24.1897 51.9161Z" fill="white"/>
<path d="M34.5885 50.1281C35.2892 50.3939 35.6396 50.8771 35.6396 51.5778C35.6396 52.0772 35.4423 52.5041 35.0476 52.8584C34.661 53.2048 34.1053 53.3779 33.3804 53.3779C32.1642 53.3779 31.3669 52.8947 30.9883 51.9282L31.6649 51.5295C31.9145 52.2463 32.4864 52.6047 33.3804 52.6047C33.8475 52.6047 34.2059 52.5041 34.4556 52.3027C34.7134 52.1014 34.8422 51.8436 34.8422 51.5295C34.8422 51.2476 34.7375 51.0181 34.5281 50.8409C34.3187 50.6637 34.0368 50.5751 33.6824 50.5751H32.8005V49.8019H33.4408C33.7871 49.8019 34.0569 49.7173 34.2502 49.5482C34.4516 49.371 34.5523 49.1294 34.5523 48.8233C34.5523 48.5334 34.4355 48.2958 34.2019 48.1105C33.9684 47.9172 33.6542 47.8206 33.2596 47.8206C32.5025 47.8206 31.9991 48.1226 31.7494 48.7267L31.085 48.3401C31.4877 47.4783 32.2125 47.0474 33.2596 47.0474C33.8959 47.0474 34.4033 47.2165 34.7818 47.5548C35.1604 47.885 35.3496 48.2917 35.3496 48.775C35.3496 49.3952 35.0959 49.8462 34.5885 50.1281Z" fill="white"/>
<path d="M41.9739 47.1924H42.6505V53.233H41.8531V48.5817L38.2529 53.233H37.5764V47.1924H38.3737V51.8436L41.9739 47.1924Z" fill="white"/>
<path d="M49.3383 47.1924H50.1356V53.233H49.3383V50.5993H45.8589V53.233H45.0615V47.1924H45.8589V49.8261H49.3383V47.1924Z" fill="white"/>
<path d="M61.1727 53.233H60.1095L57.0892 50.3214V53.233H56.2919V47.1924H57.0892V49.8623L59.9646 47.1924H61.0519L57.9349 50.0918L61.1727 53.233Z" fill="white"/>
<path d="M67.4469 52.4718C66.8348 53.0759 66.0857 53.3779 65.1998 53.3779C64.3138 53.3779 63.5608 53.0759 62.9406 52.4718C62.3285 51.8597 62.0224 51.1067 62.0224 50.2127C62.0224 49.3186 62.3285 48.5696 62.9406 47.9656C63.5608 47.3534 64.3138 47.0474 65.1998 47.0474C66.0857 47.0474 66.8348 47.3534 67.4469 47.9656C68.067 48.5696 68.3771 49.3186 68.3771 50.2127C68.3771 51.1067 68.067 51.8597 67.4469 52.4718ZM63.5084 51.9161C63.9675 52.3752 64.5313 52.6047 65.1998 52.6047C65.8683 52.6047 66.4321 52.3752 66.8911 51.9161C67.3502 51.449 67.5798 50.8812 67.5798 50.2127C67.5798 49.5442 67.3502 48.9804 66.8911 48.5213C66.4321 48.0541 65.8683 47.8206 65.1998 47.8206C64.5313 47.8206 63.9675 48.0541 63.5084 48.5213C63.0493 48.9804 62.8198 49.5442 62.8198 50.2127C62.8198 50.8812 63.0493 51.449 63.5084 51.9161Z" fill="white"/>
<path d="M73.6741 47.0474C74.5359 47.0474 75.2688 47.3534 75.8729 47.9656C76.485 48.5777 76.791 49.3267 76.791 50.2127C76.791 51.0986 76.485 51.8476 75.8729 52.4598C75.2688 53.0719 74.5359 53.3779 73.6741 53.3779C72.6029 53.3779 71.7894 52.935 71.2337 52.049V55.6492H70.4363V47.1924H71.2337V48.3763C71.7894 47.4904 72.6029 47.0474 73.6741 47.0474ZM71.9223 51.9161C72.3814 52.3752 72.9452 52.6047 73.6137 52.6047C74.2822 52.6047 74.846 52.3752 75.305 51.9161C75.7641 51.449 75.9937 50.8812 75.9937 50.2127C75.9937 49.5442 75.7641 48.9804 75.305 48.5213C74.846 48.0541 74.2822 47.8206 73.6137 47.8206C72.9452 47.8206 72.3814 48.0541 71.9223 48.5213C71.4632 48.9804 71.2337 49.5442 71.2337 50.2127C71.2337 50.8812 71.4632 51.449 71.9223 51.9161Z" fill="white"/>
<path d="M81.6325 47.0474C82.5265 47.0474 83.2473 47.3655 83.795 48.0018C84.3508 48.63 84.6286 49.375 84.6286 50.2368C84.6286 50.3254 84.6206 50.4503 84.6045 50.6113H79.3008C79.3814 51.2235 79.6391 51.7107 80.074 52.0732C80.517 52.4275 81.0606 52.6047 81.705 52.6047C82.1641 52.6047 82.5587 52.5121 82.8889 52.3269C83.2272 52.1336 83.4809 51.8839 83.6501 51.5778L84.3508 51.9886C84.085 52.4155 83.7225 52.7537 83.2635 53.0034C82.8044 53.2531 82.2809 53.3779 81.6929 53.3779C80.7425 53.3779 79.9693 53.0799 79.3733 52.4839C78.7773 51.8879 78.4793 51.1308 78.4793 50.2127C78.4793 49.3106 78.7733 48.5575 79.3612 47.9535C79.9492 47.3494 80.7063 47.0474 81.6325 47.0474ZM81.6325 47.8206C81.0043 47.8206 80.4767 48.0098 80.0499 48.3884C79.631 48.7589 79.3814 49.2421 79.3008 49.8381H83.8071C83.7266 49.2019 83.4809 48.7065 83.0702 48.3522C82.6594 47.9978 82.1802 47.8206 81.6325 47.8206Z" fill="white"/>
<path d="M87.5883 46.2259V45.5251H90.7295V46.2259H87.5883ZM91.0194 47.1924H91.696V53.233H90.8986V48.5817L87.2984 53.233H86.6218V47.1924H87.4192V51.8436L91.0194 47.1924Z" fill="white"/>
<path d="M96.9219 53.3779C96.0118 53.3779 95.2547 53.0759 94.6507 52.4718C94.0466 51.8597 93.7446 51.1067 93.7446 50.2127C93.7446 49.3186 94.0466 48.5696 94.6507 47.9656C95.2547 47.3534 96.0118 47.0474 96.9219 47.0474C97.518 47.0474 98.0535 47.1924 98.5287 47.4823C99.0039 47.7642 99.3503 48.1468 99.5677 48.63L98.9153 49.0045C98.7543 48.6421 98.4925 48.3562 98.1301 48.1468C97.7757 47.9293 97.373 47.8206 96.9219 47.8206C96.2534 47.8206 95.6897 48.0541 95.2306 48.5213C94.7715 48.9804 94.5419 49.5442 94.5419 50.2127C94.5419 50.8812 94.7715 51.449 95.2306 51.9161C95.6897 52.3752 96.2534 52.6047 96.9219 52.6047C97.373 52.6047 97.7757 52.5 98.1301 52.2906C98.4844 52.0732 98.7623 51.7832 98.9637 51.4208L99.6281 51.8074C99.3785 52.2906 99.012 52.6732 98.5287 52.9551C98.0455 53.237 97.5099 53.3779 96.9219 53.3779Z" fill="white"/>
<path d="M106.379 53.233H105.315L102.295 50.3214V53.233H101.498V47.1924H102.295V49.8623L105.17 47.1924H106.258L103.141 50.0918L106.379 53.233Z" fill="white"/>
<path d="M112.653 52.4718C112.041 53.0759 111.292 53.3779 110.406 53.3779C109.52 53.3779 108.767 53.0759 108.147 52.4718C107.534 51.8597 107.228 51.1067 107.228 50.2127C107.228 49.3186 107.534 48.5696 108.147 47.9656C108.767 47.3534 109.52 47.0474 110.406 47.0474C111.292 47.0474 112.041 47.3534 112.653 47.9656C113.273 48.5696 113.583 49.3186 113.583 50.2127C113.583 51.1067 113.273 51.8597 112.653 52.4718ZM108.714 51.9161C109.173 52.3752 109.737 52.6047 110.406 52.6047C111.074 52.6047 111.638 52.3752 112.097 51.9161C112.556 51.449 112.786 50.8812 112.786 50.2127C112.786 49.5442 112.556 48.9804 112.097 48.5213C111.638 48.0541 111.074 47.8206 110.406 47.8206C109.737 47.8206 109.173 48.0541 108.714 48.5213C108.255 48.9804 108.026 49.5442 108.026 50.2127C108.026 50.8812 108.255 51.449 108.714 51.9161Z" fill="white"/>
<path d="M116.609 46.2259V45.5251H119.75V46.2259H116.609ZM120.04 47.1924H120.716V53.233H119.919V48.5817L116.319 53.233H115.642V47.1924H116.44V51.8436L120.04 47.1924Z" fill="white"/>
<path d="M131.753 53.233H130.69L127.67 50.3214V53.233H126.873V47.1924H127.67V49.8623L130.545 47.1924H131.633L128.516 50.0918L131.753 53.233Z" fill="white"/>
<path d="M138.028 52.4718C137.416 53.0759 136.666 53.3779 135.781 53.3779C134.895 53.3779 134.141 53.0759 133.521 52.4718C132.909 51.8597 132.603 51.1067 132.603 50.2127C132.603 49.3186 132.909 48.5696 133.521 47.9656C134.141 47.3534 134.895 47.0474 135.781 47.0474C136.666 47.0474 137.416 47.3534 138.028 47.9656C138.648 48.5696 138.958 49.3186 138.958 50.2127C138.958 51.1067 138.648 51.8597 138.028 52.4718ZM134.089 51.9161C134.548 52.3752 135.112 52.6047 135.781 52.6047C136.449 52.6047 137.013 52.3752 137.472 51.9161C137.931 51.449 138.161 50.8812 138.161 50.2127C138.161 49.5442 137.931 48.9804 137.472 48.5213C137.013 48.0541 136.449 47.8206 135.781 47.8206C135.112 47.8206 134.548 48.0541 134.089 48.5213C133.63 48.9804 133.401 49.5442 133.401 50.2127C133.401 50.8812 133.63 51.449 134.089 51.9161Z" fill="white"/>
<path d="M143.832 53.3779C142.922 53.3779 142.165 53.0759 141.561 52.4718C140.957 51.8597 140.655 51.1067 140.655 50.2127C140.655 49.3186 140.957 48.5696 141.561 47.9656C142.165 47.3534 142.922 47.0474 143.832 47.0474C144.428 47.0474 144.964 47.1924 145.439 47.4823C145.914 47.7642 146.26 48.1468 146.478 48.63L145.825 49.0045C145.664 48.6421 145.403 48.3562 145.04 48.1468C144.686 47.9293 144.283 47.8206 143.832 47.8206C143.163 47.8206 142.6 48.0541 142.141 48.5213C141.682 48.9804 141.452 49.5442 141.452 50.2127C141.452 50.8812 141.682 51.449 142.141 51.9161C142.6 52.3752 143.163 52.6047 143.832 52.6047C144.283 52.6047 144.686 52.5 145.04 52.2906C145.394 52.0732 145.672 51.7832 145.874 51.4208L146.538 51.8074C146.288 52.2906 145.922 52.6732 145.439 52.9551C144.956 53.237 144.42 53.3779 143.832 53.3779Z" fill="white"/>
<path d="M154.328 47.1924V53.233H153.53V48.4126L151.416 51.8436H151.319L149.205 48.4126V53.233H148.408V47.1924H149.326L151.368 50.5026L153.409 47.1924H154.328Z" fill="white"/>
<path d="M159.533 47.0474C160.427 47.0474 161.148 47.3655 161.696 48.0018C162.251 48.63 162.529 49.375 162.529 50.2368C162.529 50.3254 162.521 50.4503 162.505 50.6113H157.202C157.282 51.2235 157.54 51.7107 157.975 52.0732C158.418 52.4275 158.961 52.6047 159.606 52.6047C160.065 52.6047 160.459 52.5121 160.79 52.3269C161.128 52.1336 161.382 51.8839 161.551 51.5778L162.251 51.9886C161.986 52.4155 161.623 52.7537 161.164 53.0034C160.705 53.2531 160.182 53.3779 159.594 53.3779C158.643 53.3779 157.87 53.0799 157.274 52.4839C156.678 51.8879 156.38 51.1308 156.38 50.2127C156.38 49.3106 156.674 48.5575 157.262 47.9535C157.85 47.3494 158.607 47.0474 159.533 47.0474ZM159.533 47.8206C158.905 47.8206 158.377 48.0098 157.951 48.3884C157.532 48.7589 157.282 49.2421 157.202 49.8381H161.708C161.627 49.2019 161.382 48.7065 160.971 48.3522C160.56 47.9978 160.081 47.8206 159.533 47.8206Z" fill="white"/>
<path d="M168.636 47.1924V47.9656H166.497V53.233H165.7V47.9656H163.562V47.1924H168.636Z" fill="white"/>
<path d="M174.73 47.1924H175.407V53.233H174.609V48.5817L171.009 53.233H170.332V47.1924H171.13V51.8436L174.73 47.1924Z" fill="white"/>
<path d="M182.698 53.233H181.635L178.615 50.3214V53.233H177.818V47.1924H178.615V49.8623L181.49 47.1924H182.578L179.461 50.0918L182.698 53.233Z" fill="white"/>
<path d="M188.91 47.1924H189.586V53.233H188.789V48.5817L185.189 53.233H184.512V47.1924H185.31V51.8436L188.91 47.1924Z" fill="white"/>
<path d="M41.4429 8.92653C43.593 5.54789 48.0978 1.31178 49.8895 0C49.4736 0.799869 48.7953 2.4188 49.4096 2.49559C50.0239 2.57238 51.4572 0.863858 52.0971 0C51.5532 0.767874 49.7519 3.13852 50.4654 6.04701C51.7132 11.1342 58.0482 16.7013 58.2402 21.5965C58.4321 26.4916 56.0325 33.9784 48.2578 33.9784C40.8546 33.9784 37.6394 28.1364 37.3156 22.8442C36.9299 16.5406 39.9819 11.2224 41.4429 8.92653Z" fill="#8DE1E1"/>
<mask id="mask0" style="mask-type:alpha" maskUnits="userSpaceOnUse" x="37" y="0" width="22" height="34">
<path d="M41.4429 8.92653C43.593 5.54789 48.0978 1.31178 49.8895 0C49.4736 0.799869 48.7953 2.4188 49.4096 2.49559C50.0239 2.57238 51.4572 0.863858 52.0971 0C51.5532 0.767874 49.7519 3.13852 50.4654 6.04701C51.7132 11.1342 58.0482 16.7013 58.2402 21.5965C58.4321 26.4916 56.0325 33.9784 48.2578 33.9784C40.8546 33.9784 37.6394 28.1364 37.3156 22.8442C36.9299 16.5406 39.9819 11.2224 41.4429 8.92653Z" fill="#8DE1E1"/>
</mask>
<g mask="url(#mask0)">
<g opacity="0.7" filter="url(#filter0_f)">
<path d="M38.755 28.2194C36.6818 24.9175 37.5072 19.3568 38.1791 16.9892C37.9314 18.8769 37.6997 23.4009 38.755 26.3957C39.8103 29.3904 42.7781 32.2507 44.1301 33.3065C43.2023 32.9866 40.8283 31.5212 38.755 28.2194Z" fill="white"/>
</g>
<g filter="url(#filter1_dif)">
<path d="M43.9387 14.1097C45.2515 6.14535 47.957 2.28763 49.2688 0.943848C48.7475 1.64773 48.5523 2.92911 48.9363 3.0651C49.5122 3.26909 50.1998 2.65877 50.9677 1.69892C48.3761 5.63428 46.6263 7.87071 45.8584 15.9334C45.3526 21.244 47.874 23.3242 46.3383 24.188C45.6638 24.5674 42.4989 22.8443 43.9387 14.1097Z" fill="#E8FAFF"/>
</g>
<g opacity="0.75" filter="url(#filter2_f)">
<path d="M52.6736 22.0764C50.9843 19.3888 52.0977 14.1737 52.8656 11.902C53.1535 12.5099 53.3455 13.4378 54.4013 15.7414C55.2866 17.6729 56.7049 18.7169 56.513 23.0362C56.3594 26.4916 54.1453 29.2752 53.1535 30.139C53.6974 28.5713 54.3629 24.7639 52.6736 22.0764Z" fill="#ADFFFF"/>
</g>
<g opacity="0.65" filter="url(#filter3_f)">
<path d="M54.4006 23.4201C54.1702 22.2683 54.1766 19.9967 54.2086 19.0048C54.4966 20.0287 54.9765 23.2281 55.1685 23.708C55.7755 25.2257 55.4564 27.2595 54.5926 27.0675C53.7287 26.8755 54.6885 24.8599 54.4006 23.4201Z" fill="white"/>
</g>
<g opacity="0.65" filter="url(#filter4_f)">
<path d="M52.8652 24.3799C52.7885 23.6889 52.3853 22.3003 52.1934 21.6924C52.5773 22.0763 53.2405 23.0653 53.5371 23.7081C54.113 24.9558 53.8251 25.8197 53.3452 25.8197C52.8652 25.8197 52.9612 25.2438 52.8652 24.3799Z" fill="white"/>
</g>
<g filter="url(#filter5_f)">
<path d="M54.9764 14.3016C55.0913 14.4779 55.2192 14.6882 55.3549 14.9281C56.3995 16.6714 57.9612 19.428 58.1439 21.1165C58.3855 23.3502 58.5278 26.2037 56.2242 29.7551C54.3813 32.5962 51.5529 33.6265 50.3691 33.7864C51.041 33.5305 52.7112 32.7498 54.0165 31.6748C55.6483 30.331 57.28 27.7394 57.568 23.2282C57.7707 20.0514 56.3522 16.6911 55.3549 14.9281C55.2185 14.7004 55.0909 14.4901 54.9764 14.3016Z" fill="#479B9B"/>
</g>
<g filter="url(#filter6_f)">
<path d="M40.3874 26.1077C38.0838 19.504 41.6032 10.6863 43.075 8.06268C42.851 9.63043 42.0192 11.8061 42.3071 15.0695C42.5098 17.3662 44.4188 20.1567 44.8987 23.3242C45.3786 26.4917 43.4589 27.7395 45.5706 29.8511C47.0894 31.3699 49.3945 31.4508 50.6581 31.2656C50.7963 31.241 50.9245 31.217 51.0417 31.1949C50.9287 31.2207 50.8 31.2449 50.6581 31.2656C48.1928 31.7059 42.5688 32.361 40.3874 26.1077Z" fill="#63B7B7"/>
</g>
<g filter="url(#filter7_f)">
<path d="M41.539 23.6121C40.3104 18.8512 41.9229 11.774 42.7868 9.02246C42.1149 13.0538 42.5756 18.7361 43.2667 23.0362C43.9578 27.3363 46.8181 30.9709 47.9699 31.6747C46.4022 30.8429 42.7676 28.3729 41.539 23.6121Z" fill="#368A8A"/>
</g>
<g filter="url(#filter8_f)">
<path d="M43.8626 22.4603C44.3233 24.1497 44.4385 26.6836 44.4385 27.7395C44.0225 26.9396 43.0755 24.8791 42.6148 23.0362C42.1541 21.1933 42.5508 18.7489 42.8067 17.7571C42.9667 18.621 43.4018 20.771 43.8626 22.4603Z" fill="#186C6C"/>
</g>
</g>
<defs>
<filter id="filter0_f" x="36.8596" y="16.4133" width="7.84641" height="17.4691" filterUnits="userSpaceOnUse" color-interpolation-filters="sRGB">
<feFlood flood-opacity="0" result="BackgroundImageFix"/>
<feBlend mode="normal" in="SourceGraphic" in2="BackgroundImageFix" result="shape"/>
<feGaussianBlur stdDeviation="0.287953" result="effect1_foregroundBlur"/>
</filter>
<filter id="filter1_dif" x="42.8123" y="0.188772" width="8.91049" height="24.8026" filterUnits="userSpaceOnUse" color-interpolation-filters="sRGB">
<feFlood flood-opacity="0" result="BackgroundImageFix"/>
<feColorMatrix in="SourceAlpha" type="matrix" values="0 0 0 0 0 0 0 0 0 0 0 0 0 0 0 0 0 0 127 0" result="hardAlpha"/>
<feOffset/>
<feGaussianBlur stdDeviation="0.377538"/>
<feComposite in2="hardAlpha" operator="out"/>
<feColorMatrix type="matrix" values="0 0 0 0 0.592157 0 0 0 0 0.921569 0 0 0 0 0.921569 0 0 0 0.25 0"/>
<feBlend mode="normal" in2="BackgroundImageFix" result="effect1_dropShadow"/>
<feBlend mode="normal" in="SourceGraphic" in2="effect1_dropShadow" result="shape"/>
<feColorMatrix in="SourceAlpha" type="matrix" values="0 0 0 0 0 0 0 0 0 0 0 0 0 0 0 0 0 0 127 0" result="hardAlpha"/>
<feOffset/>
<feGaussianBlur stdDeviation="0.377538"/>
<feComposite in2="hardAlpha" operator="arithmetic" k2="-1" k3="1"/>
<feColorMatrix type="matrix" values="0 0 0 0 0.371736 0 0 0 0 0.87259 0 0 0 0 0.883333 0 0 0 1 0"/>
<feBlend mode="normal" in2="shape" result="effect2_innerShadow"/>
<feGaussianBlur stdDeviation="0.188769" result="effect3_foregroundBlur"/>
</filter>
<filter id="filter2_f" x="50.6373" y="10.7502" width="7.04516" height="20.5406" filterUnits="userSpaceOnUse" color-interpolation-filters="sRGB">
<feFlood flood-opacity="0" result="BackgroundImageFix"/>
<feBlend mode="normal" in="SourceGraphic" in2="BackgroundImageFix" result="shape"/>
<feGaussianBlur stdDeviation="0.575905" result="effect1_foregroundBlur"/>
</filter>
<filter id="filter3_f" x="53.8084" y="18.6209" width="2.05738" height="8.8432" filterUnits="userSpaceOnUse" color-interpolation-filters="sRGB">
<feFlood flood-opacity="0" result="BackgroundImageFix"/>
<feBlend mode="normal" in="SourceGraphic" in2="BackgroundImageFix" result="shape"/>
<feGaussianBlur stdDeviation="0.191968" result="effect1_foregroundBlur"/>
</filter>
<filter id="filter4_f" x="51.8094" y="21.3084" width="2.43116" height="4.8952" filterUnits="userSpaceOnUse" color-interpolation-filters="sRGB">
<feFlood flood-opacity="0" result="BackgroundImageFix"/>
<feBlend mode="normal" in="SourceGraphic" in2="BackgroundImageFix" result="shape"/>
<feGaussianBlur stdDeviation="0.191968" result="effect1_foregroundBlur"/>
</filter>
<filter id="filter5_f" x="49.9852" y="13.9177" width="8.67069" height="20.2527" filterUnits="userSpaceOnUse" color-interpolation-filters="sRGB">
<feFlood flood-opacity="0" result="BackgroundImageFix"/>
<feBlend mode="normal" in="SourceGraphic" in2="BackgroundImageFix" result="shape"/>
<feGaussianBlur stdDeviation="0.191968" result="effect1_foregroundBlur"/>
</filter>
<filter id="filter6_f" x="38.6661" y="7.10284" width="13.3354" height="25.3866" filterUnits="userSpaceOnUse" color-interpolation-filters="sRGB">
<feFlood flood-opacity="0" result="BackgroundImageFix"/>
<feBlend mode="normal" in="SourceGraphic" in2="BackgroundImageFix" result="shape"/>
<feGaussianBlur stdDeviation="0.479921" result="effect1_foregroundBlur"/>
</filter>
<filter id="filter7_f" x="40.1339" y="8.06262" width="8.79585" height="24.572" filterUnits="userSpaceOnUse" color-interpolation-filters="sRGB">
<feFlood flood-opacity="0" result="BackgroundImageFix"/>
<feBlend mode="normal" in="SourceGraphic" in2="BackgroundImageFix" result="shape"/>
<feGaussianBlur stdDeviation="0.479921" result="effect1_foregroundBlur"/>
</filter>
<filter id="filter8_f" x="41.6354" y="16.9892" width="3.57133" height="11.5181" filterUnits="userSpaceOnUse" color-interpolation-filters="sRGB">
<feFlood flood-opacity="0" result="BackgroundImageFix"/>
<feBlend mode="normal" in="SourceGraphic" in2="BackgroundImageFix" result="shape"/>
<feGaussianBlur stdDeviation="0.383937" result="effect1_foregroundBlur"/>
</filter>
</defs>
</svg>
