<svg width="175" height="114" viewBox="0 0 175 114" xmlns="http://www.w3.org/2000/svg"><g fill="none" fill-rule="evenodd"><rect fill="#FFF" width="175" height="114" rx="12"/><g transform="translate(9 39)"><rect fill="#004274" fill-rule="nonzero" width="33" height="33" rx="10.22"/><path d="M22.9194849,25.1356468 L18.9354966,25.1356468 C18.8215677,25.1336989 18.7296794,25.0418106 18.7277314,24.9278816 L18.7277314,23.9400858 L15.7278939,26.9399233 C15.6457781,27.0200256 15.5147645,27.0200256 15.4326487,26.9399233 L12.6150613,24.133271 C12.5349591,24.0511551 12.5349591,23.9201415 12.6150613,23.8380257 L13.3149019,23.1381851 L9.07211837,23.1381851 C8.95818945,23.1362372 8.86630113,23.0443489 8.8643532,22.93042 L8.8643532,18.9354966 C8.8643532,18.8207511 8.95737284,18.7277314 9.07211837,18.7277314 L10.0599142,18.7277314 L7.06007669,15.7278939 C6.97997444,15.6457781 6.97997444,15.5147645 7.06007669,15.4326487 L9.87766405,12.6150613 C9.95977987,12.5349591 10.0907935,12.5349591 10.1729093,12.6150613 L10.8691049,13.3112569 L10.8691049,9.07211837 C10.8690963,9.01637823 10.8914854,8.96297236 10.9312409,8.92390234 C10.9709963,8.88483232 11.0247835,8.8633753 11.0805151,8.8643532 L15.0645034,8.8643532 C15.1792489,8.8643532 15.2722686,8.95737284 15.2722686,9.07211837 L15.2722686,10.0562692 L18.2721061,7.06007669 C18.3542219,6.97997444 18.4852355,6.97997444 18.5673513,7.06007669 L21.3849387,9.87766405 C21.4650409,9.95977987 21.4650409,10.0907935 21.3849387,10.1729093 L20.6850981,10.8691049 L24.9278816,10.8691049 C25.0432143,10.8710937 25.1356639,10.9651652 25.1356468,11.0805151 L25.1356468,15.0645034 C25.1336989,15.1784323 25.0418106,15.2703206 24.9278816,15.2722686 L23.9400858,15.2722686 L26.9399233,18.2721061 C27.0200256,18.3542219 27.0200256,18.4852355 26.9399233,18.5673513 L24.122336,21.3812937 C24.0838212,21.4216259 24.0304814,21.4444436 23.9747133,21.4444436 C23.9189452,21.4444436 23.8656055,21.4216259 23.8270907,21.3812937 L23.1308951,20.6850981 L23.1308951,24.9278816 C23.1289063,25.0432143 23.0348348,25.1356639 22.9194849,25.1356468 L22.9194849,25.1356468 Z M22.4055395,14.0329675 L20.8491232,15.2722686 L18.9354966,15.2722686 C18.8215677,15.2703206 18.7296794,15.1784323 18.7277314,15.0645034 L18.7277314,11.0805151 L18.5017413,13.0561067 L17.1494451,14.4084028 C17.0660951,14.4889506 16.9339049,14.4889506 16.8505549,14.4084028 L15.2722686,12.8337615 L14.0366125,11.5944605 L15.2722686,13.1508768 L15.2722686,15.0681484 C15.2703206,15.1820773 15.1784323,15.2739656 15.0645034,15.2759136 L11.0805151,15.2759136 L13.0561067,15.5019037 L13.0561067,15.5019037 L14.4084028,16.8541999 C14.4487351,16.8927146 14.4715528,16.9460544 14.4715528,17.0018225 C14.4715528,17.0575906 14.4487351,17.1109304 14.4084028,17.1494451 L11.5944605,19.9670325 L13.1508768,18.7313764 L15.0645034,18.7313764 C15.1792489,18.7313764 15.2722686,18.8243961 15.2722686,18.9391416 L15.2722686,22.92313 L15.4982587,20.9475383 L16.8505549,19.5915972 C16.9339049,19.5110494 17.0660951,19.5110494 17.1494451,19.5915972 L19.9633875,22.4091845 L18.7277314,20.8527682 L18.7277314,18.9391416 C18.7277314,18.8243961 18.8207511,18.7313764 18.9354966,18.7313764 L22.9194849,18.7313764 L20.9438933,18.5053863 L19.5915972,17.1494451 C19.5512649,17.1109304 19.5284472,17.0575906 19.5284472,17.0018225 C19.5284472,16.9460544 19.5512649,16.8927146 19.5915972,16.8541999 L21.1698835,15.2759136 L21.1698835,15.2759136 L22.4055395,14.0329675 Z" fill="#FFF"/><path d="M51.0864327 13.4875452C51.1337472 15.0559498 49.9072091 16.1872581 48.3531089 16.1872581L44.2695013 16.1872581 44.2695013 10.8980247 48.3822255 10.8980247C49.0833324 10.8712479 49.7655189 11.1309132 50.2744754 11.6182847 50.783432 12.1056562 51.0761557 12.7795546 51.0864327 13.4875452L51.0864327 13.4875452ZM152.33588 3.76490573 152.33588 19.5150674C152.334086 19.6459849 152.279505 19.7705113 152.18473 19.8599213 152.089954 19.9493313 151.963168 19.9959034 151.833618 19.9888946L148.557997 19.9888946C148.293896 20.0015641 148.067889 19.7995446 148.048456 19.5334328L148.048456 3.76490573 142.923929 3.76490573C142.661695 3.74341618 142.463617 3.5158868 142.476261 3.2506747L142.476261.550961814C142.467287.42267706 142.509572.296105432 142.593679.199492236 142.677787.10287904 142.796717.0442652005 142.923929.0367307876L157.547757.0367307876C157.67526.0442921636 157.79453.102780584 157.879215.199271988 157.963899.295763392 158.007026.422314582 157.999065.550961814L157.999065 3.2506747C158.011619 3.51720726 157.811442 3.74529373 157.547757 3.76490573L152.33588 3.76490573ZM70.4890282 19.3167212 70.4890282 16.6831237C70.4890282 16.417379 70.2755644 16.2019504 70.0122434 16.2019504L62.3691275 16.2019504C61.9800362 16.1989918 61.6095867 16.0333097 61.3460677 15.7443909 61.0825486 15.4554721 60.9495642 15.0691959 60.9788083 14.6776227L60.9788083 10.9016978 69.1132674 10.9016978C69.3654017 10.8960522 69.5695697 10.6932244 69.5791335 10.4388898L69.5791335 7.77590773C69.58122 7.63678867 69.5235343 7.50356866 69.4209553 7.41060904 69.3183762 7.31764941 69.1809473 7.27405181 69.0441154 7.29106134L60.9678896 7.29106134 60.9678896 5.16802181C60.9659308 4.79562595 61.1118989 4.4379635 61.3731664 4.17498149 61.6344339 3.91199949 61.9892157 3.76562579 62.3582088 3.76857881L70.0013246 3.76857881C70.1324382 3.77573296 70.2606015 3.72757891 70.3551576 3.63563513 70.4497138 3.54369135 70.5021585 3.4162273 70.5000142 3.28373241L70.5000142.521577184C70.498552.383609813 70.4398394.252568199 70.3381159.1603839 70.2363924.0681995998 70.1009994.0233380145 69.9649288.0367307876L62.0197279 0C59.1075224.00157662475 56.7337333 2.35799557 56.6841052 5.29657957L56.6841052 14.736392C56.7117925 17.6284746 59.0302405 19.9649945 61.8959822 19.9888946L70.0049642 19.9888946C70.133261 19.9929279 70.2576001 19.9437746 70.3490487 19.8528721 70.4404972 19.7619697 70.4910805 19.6372453 70.4890282 19.5077213L70.4890282 19.3350866 70.4890282 19.3167212ZM102.903119 9.36635084 102.903119 9.22310076C103.506282 8.85782492 104.023032 8.36389784 104.417183 7.77590773 104.840275 7.13969257 105.139211 6.42785844 105.297962 5.67857976L106.593652.602384917C106.621205.461756687 106.584193.316099742 106.492981.206208708 106.401769.0963176746 106.266164.0340079356 106.124146.0367307876L103.06326.0367307876C102.952042.0331478414 102.841417.0544727696 102.739338.0991731265 102.609601.165714281 102.52001.291747238 102.499125.437096372L101.232552 5.21209876C101.118548 5.70819418 100.914975 6.17885424 100.632021 6.60052253 100.41455 6.91606837 100.129744 7.17839296 99.7985577 7.36819599 99.5123254 7.52933269 99.2009007 7.6398936 98.8777442 7.6951 98.5852028 7.74130709 98.2894212 7.76341849 97.9933265 7.76121542L95.7477063 7.76121542 95.7477063.521577184C95.7477101.39624555 95.6981286.276099991 95.609973.187822647 95.5218174.0995453028 95.4023854.0504439492 95.2782006.0514231026L91.9734629.0514231026C91.7092947.0346474752 91.4814465.236670988 91.4639218.50321179L91.4639218 19.5260867C91.483355 19.7921985 91.7093612 19.9942179 91.9734629 19.9815485L95.249084 19.9815485C95.3764323 19.990591 95.5019974 19.9473146 95.5972627 19.8615476 95.6925279 19.7757805 95.7494081 19.6548019 95.7549855 19.5260867L95.7549855 11.0780055 98.0370015 11.0780055C98.5961529 11.0566214 99.1553751 11.118504 99.6966495 11.2616595 100.132788 11.3824419 100.523968 11.6302977 100.821279 11.9742368 101.163271 12.4153179 101.411107 12.9230562 101.549195 13.4655067L103.281635 19.636279C103.338893 19.8395729 103.523528 19.9793238 103.732943 19.9778754L107.008564 19.9778754C107.15466 19.9863602 107.296425 19.9261433 107.392537 19.8147768 107.488649 19.7034103 107.52829 19.5534285 107.499907 19.4085482L105.752909 12.7970064C105.651371 12.4040723 105.529891 12.0166639 105.388951 11.6363135 105.266234 11.3001516 105.098467 10.9825389 104.890329 10.6923323 104.675946 10.3976473 104.412392 10.142854 104.111459 9.93935112 103.733825 9.69419968 103.326482 9.49914678 102.899479 9.35900468L102.903119 9.36635084ZM114.760867 12.3048138 115.830903 8.70152358 116.904579 4.66113695 117.072 4.66113695 118.116559 8.70152358 119.186595 12.3048138 114.760867 12.3048138ZM120.198398 15.8309695 121.290272 19.5260867C121.384901 19.8640099 121.56324 19.9817355 121.777975 19.9817355L125.341123 19.9817355C125.494391 19.9858575 125.64036 19.915515 125.733392 19.7925144 125.826424 19.6695137 125.855165 19.5088656 125.810629 19.3607981L119.965465 1.6088085C119.688857.745634988 119.281224.0477500239 118.283979.0477500239L115.754472.0477500239C115.251456-.000845178251 114.761189.226220625 114.469701.642788783 114.265836.93332687 114.114296 1.25784668 114.022032 1.60146234L108.198706 19.3314135C108.146039 19.4803677 108.169264 19.6459302 108.260831 19.774277 108.352398 19.9026239 108.500613 19.977365 108.657293 19.9742023L112.082137 19.9742023C112.292196 20.0005035 112.493116 19.8794469 112.56984 19.680356 112.604914 19.6006033 112.63411 19.518348 112.65719 19.4342597L113.749064 15.8236233 120.198398 15.8309695ZM137.74845 6.38381088C137.749415 7.07673834 137.47709 7.74156618 136.991585 8.23154037 136.506079 8.72151456 135.847315 8.99634653 135.160707 8.99537248L131.320951 8.99537248 131.320951 3.77959804 134.986007 3.77959804C135.700875 3.73295425 136.403049 3.98661578 136.926197 4.48049464 137.449345 4.9743735 137.746926 5.66453211 137.74845 6.38748396L137.74845 6.38381088ZM131.320951 19.3828366 131.320951 12.7088525 136.005089 12.7088525C137.679764 12.6973793 139.280145 12.0095844 140.44886 10.7990558 141.617574 9.58852717 142.257281 7.95608901 142.22513 6.26627236 142.216491 5.40216867 142.026713 4.54969653 141.668274 3.76490573 140.943402 2.09818567 139.528293.837988251 137.799402.319557852 137.094293.123124456 136.365281.027913302 135.633852.0367307876L128.485719.0367307876C128.115514.0228611742 127.755341.159855297 127.486296.416867444 127.217252.673879591 127.061952 1.02930511 127.055365 1.40311609 127.055365 1.52065461 127.037167 1.64186621 127.055365 1.77042396L127.055365 19.4856828C127.053312 19.6152068 127.103896 19.7399312 127.195344 19.8308336 127.286793 19.9217361 127.411132 19.9708895 127.539429 19.9668561L130.866004 19.9668561C131.040286 19.9634626 131.199073 19.8650641 131.280916 19.7097406 131.325804 19.6018862 131.344521 19.4847724 131.33551 19.3681443L131.320951 19.3828366ZM41.3796756 19.9888946 48.7753 19.9888946C52.414879 20.1174524 55.4175317 17.5573165 55.5376378 13.7446607 55.5585877 13.3613897 55.5366111 12.9769568 55.4721254 12.5986601 54.8242803 9.46919704 52.3748436 7.31677289 49.2520849 7.31677289L44.2695013 7.31677289 44.2695013 3.76490573 52.7788369 3.76490573C52.9206686 3.77346824 53.0589811 3.71823214 53.156602 3.61404252 53.2542229 3.5098529 53.301138 3.36739782 53.2847384 3.22496315L53.2847384.694211886C53.2847384.32690401 53.1646323.0587692602 52.7788369.0661154177L41.4961421.0661154177C41.107482.0305169846 40.7221895.163625526 40.4366818.432131389 40.1511742.700637251 39.9924667 1.07913386 40.0002751 1.47290458L40.0002751 18.5967978C39.9983164 18.9701678 40.144668 19.3287644 40.406618 19.5924352 40.668568 19.8561061 41.0242755 20.0028668 41.3942339 19.9999576L41.3796756 19.9888946ZM75.1622476 1.96142406 74.9074771 6.28463776C74.8237668 7.75386926 74.7291377 9.03210067 74.6308691 10.1230051 74.4743672 11.9191406 74.2960278 16.2350081 71.9848952 16.2350081L71.8939057 16.2350081C71.6383468 16.2387322 71.4304151 16.4437352 71.4207604 16.7014891L71.4207604 19.4746636C71.4116181 19.6085442 71.4582914 19.7401952 71.5495135 19.8378364 71.6407355 19.9354776 71.7682172 19.9902366 71.9011848 19.9889187L72.1050013 19.9889187C73.84472 19.9889187 75.3806223 19.7942214 76.6872312 17.7850474 77.1258943 17.1228706 77.4736057 16.4037484 77.7208716 15.6473155 78.0012316 14.7688661 78.2081978 13.8682629 78.3396001 12.9549488 78.490036 11.9754611 78.6113553 10.8845567 78.703558 9.68223561 78.798187 8.49215809 78.8928161 7.19923437 78.9838055 5.79611828L79.0966325 3.80530959 84.5923967 3.80530959 84.5923967 19.5040482C84.5932067 19.63658 84.6477401 19.7630001 84.7433108 19.8538993 84.8388815 19.9447986 84.9671576 19.9922524 85.0982982 19.9852215L88.3739193 19.9852215C88.5115216 19.9939269 88.646198 19.942551 88.7436885 19.8441632 88.841179 19.7457753 88.8920864 19.6098593 88.8834603 19.4709905L88.8834603 1.47290458C88.8740266 1.08606791 88.7110944.719249756 88.4312226.454756971 88.1513507.190264187 87.7779746.0502444343 87.3948725.0661154177L76.585323.0661154177C75.8553356.0899696282 75.2652205.674339923 75.22776 1.41046224 75.2132017 1.55371232 75.1731663 1.73736625 75.1622476 1.94305866L75.1622476 1.96142406ZM46.2356553 26.3496968 44.9686863 28.5040563 42.5610843 32.4379457C42.4744539 32.5725932 42.3986524 32.6781277 42.3336796 32.7618275 42.2728098 32.8366412 42.2009985 32.9016773 42.1207133 32.9547009 42.0401279 33.0038758 41.9504878 33.0360635 41.8572126 33.049318 41.7375404 33.065025 41.6169293 33.0723208 41.4962528 33.0711527L40.9259363 33.0711527C40.6512805 33.1075111 40.3760137 33.0086875 40.1859686 32.8054969 40.0521582 32.587605 39.9879019 32.3335588 40.0018791 32.0776728L40.0018791 23.2964746C40.0018791 23.1145185 40.0993383 23.0235405 40.3014758 23.0235405L41.8247262 23.0235405C41.9582814 23.0235405 42.0413021 23.0417361 42.0737885 23.0817664 42.1142163 23.1455218 42.1320291 23.2212042 42.1243229 23.2964746L42.1243229 29.7377182 42.2073437 29.7377182 43.4201687 27.7289236 45.8819147 23.6531084C45.9685451 23.5184609 46.0443466 23.4092873 46.1093194 23.3219484 46.1681716 23.2432062 46.2402495 23.1754654 46.3222857 23.1217968 46.4005194 23.0731762 46.4876907 23.0409932 46.5785672 23.0271796 46.6982034 23.0110934 46.8188412 23.003796 46.939527 23.0053449L47.5242819 23.0053449C47.7848085 22.977742 48.0453005 23.0578418 48.2462016 23.2273313 48.4104122 23.4582993 48.4860687 23.7414229 48.4591679 24.0242987L48.4591679 32.8127752C48.4591679 32.9947312 48.3617087 33.0857092 48.1595712 33.0857092L46.6182728 33.0857092C46.5287827 33.0958901 46.4385 33.0753783 46.3619913 33.0274833 46.3176125 32.9653135 46.2970937 32.8890315 46.3042377 32.8127752L46.3042377 26.3496968 46.2356553 26.3496968ZM52.4983084 32.7836622C52.4983084 32.9073923 52.4802604 32.987453 52.4369452 33.0202051 52.3557656 33.0622839 52.2643054 33.0799677 52.1734445 33.0711527L50.7476532 33.0711527C50.5382965 33.0711527 50.4336181 32.9728965 50.4336181 32.7836622L50.4336181 25.8038287C50.4336181 25.6218727 50.5382965 25.5308947 50.7476532 25.5308947L52.1734445 25.5308947C52.2643054 25.5220797 52.3557656 25.5397635 52.4369452 25.5818424 52.4802604 25.6145944 52.4983084 25.691016 52.4983084 25.8038287L52.4983084 28.2602352 55.1621919 28.2602352 55.1621919 25.8038287C55.1621919 25.6218727 55.2668702 25.5308947 55.4798365 25.5308947L56.9236759 25.5308947C57.0122776 25.5206427 57.1018477 25.5384489 57.1799573 25.5818424 57.2281625 25.6449339 57.2489946 25.7250059 57.2377109 25.8038287L57.2377109 32.7836622C57.2377109 32.9073923 57.2377109 32.987453 57.1799573 33.0202051 57.1018477 33.0635986 57.0122776 33.0814047 56.9236759 33.0711527L55.4798365 33.0711527C55.2668702 33.0711527 55.1621919 32.9728965 55.1621919 32.7836622L55.1621919 29.8978395 52.4983084 29.8978395 52.4983084 32.7836622 52.4983084 32.7836622ZM62.6521083 27.2267249 62.6521083 32.7836622C62.6521083 32.9073923 62.6304507 32.987453 62.5871356 33.0202051 62.5061626 33.0628844 62.4145242 33.0806026 62.3236349 33.0711527L60.9158916 33.0711527C60.6957061 33.0711527 60.5874181 32.9728965 60.5874181 32.7836622L60.5874181 27.2267249 58.5660431 27.2267249C58.3747344 27.2267249 58.2808848 27.1211904 58.2808848 26.9101214L58.2808848 25.8620547C58.2721414 25.7704506 58.2896817 25.6782424 58.3314192 25.5963988 58.3639056 25.5527294 58.4433167 25.5308947 58.5660431 25.5308947L64.7023602 25.5308947C64.7838969 25.5199225 64.8662851 25.5436545 64.9297648 25.5963988 64.978344 25.6757842 64.9987095 25.7694619 64.9875184 25.8620547L64.9875184 26.9101214C64.9875184 27.1211904 64.8936689 27.2267249 64.7023602 27.2267249L62.6521083 27.2267249ZM68.8894942 25.3452995C70.0012504 25.3452995 70.8338644 25.6255118 71.3873362 26.1859364 71.9781238 26.8401048 72.279185 27.708629 72.2211534 28.5913952 72.2631336 28.9556711 72.1606389 29.3219143 71.9359951 29.610349 71.7211271 29.8024398 71.4393747 29.9006162 71.1527123 29.883283L67.507018 29.883283C67.5084198 30.1442937 67.5599002 30.4025655 67.6586212 30.6438592 67.7393138 30.832714 67.8629686 30.9997666 68.019581 31.1315014 68.1762196 31.2568672 68.3587854 31.3451658 68.5538015 31.389879 68.7717765 31.4392094 68.9945703 31.4636242 69.2179676 31.4626614 69.5013082 31.4620932 69.783597 31.4278926 70.059004 31.360766 70.3307032 31.2982556 70.596429 31.2117972 70.8531156 31.1023884 70.9280775 31.0697212 71.0101533 31.0571838 71.0913491 31.0659972 71.1464714 31.0958825 71.188841 31.1450708 71.2104659 31.2042838L71.6652752 32.2377941C71.7032576 32.297385 71.7112772 32.3714999 71.6869328 32.4379457 71.6521839 32.4986326 71.600795 32.5479145 71.5389393 32.5798714 71.1649125 32.8204632 70.7500953 32.9894743 70.3152855 33.078431 69.8895372 33.1727283 69.4553137 33.2227249 69.0194397 33.2276349 67.7741283 33.2276349 66.8536807 32.9146706 66.2544874 32.29602 65.6552941 31.6773695 65.359307 30.6875287 65.359307 29.3374149 65.3503538 28.7646316 65.4344876 28.194235 65.6083693 27.6488629 65.7619569 27.1852863 66.0075892 26.758105 66.330289 26.3933663 66.6362716 26.0498478 67.0167167 25.7821053 67.4420453 25.6109553 67.9021322 25.4304377 68.3922095 25.340267 68.8858846 25.3452995L68.8894942 25.3452995ZM68.9328093 27.0702427C68.5697457 27.058614 68.2204239 27.2106913 67.9798754 27.4851025 67.7242413 27.7817762 67.573205 28.1554175 67.5503332 28.5477257L70.2142167 28.5477257C70.2156372 28.3493206 70.1938288 28.1514397 70.149244 27.9581882 70.1126009 27.7904929 70.0426081 27.6320306 69.9434969 27.4923807 69.8434297 27.3573574 69.7103615 27.2507845 69.5572698 27.1830555 69.3597833 27.0999346 69.1466362 27.0614282 68.9328093 27.0702427L68.9328093 27.0702427ZM75.7910461 35.7531847C75.7910461 35.8587192 75.7910461 35.9278625 75.7441213 35.9533363 75.6668621 35.9913295 75.5805049 36.006471 75.495059 35.9970058L74.0259525 35.9970058C73.9476739 36.0026351 73.8692926 35.9875832 73.7985478 35.9533363 73.7516231 35.9278625 73.7263559 35.8587192 73.7263559 35.7531847L73.7263559 26.3933663C73.7229208 26.3067868 73.740256 26.2206499 73.7768902 26.1422669 73.8358931 26.0573301 73.9171133 25.9905628 74.0115141 25.9493936 74.4981303 25.7287715 75.0134796 25.5792743 75.5419838 25.5054208 76.0769532 25.4205666 76.6175392 25.3767714 77.1590838 25.3744125 77.742182 25.3565286 78.3225367 25.4618965 78.8628142 25.6837377 79.2936765 25.866967 79.6739562 26.1529485 79.9709609 26.5170964 80.2603604 26.881261 80.4673261 27.304788 80.5773734 27.7580365 80.7030986 28.2599951 80.7649586 28.7760425 80.7614629 29.2937455 80.7652607 29.8052115 80.698444 30.3147223 80.562935 30.8076197 80.4405403 31.2576227 80.2320891 31.6791711 79.9493033 32.0485598 79.6687898 32.407323 79.3091276 32.6951631 78.8989102 32.8891967 78.4305724 33.1054515 77.9195041 33.2112392 77.4045365 33.198522 77.1405917 33.2000413 76.8767436 33.1878949 76.6140345 33.1621308 76.3373377 33.1334489 76.0625398 33.0884898 75.7910461 33.0274833L75.7910461 35.7531847 75.7910461 35.7531847ZM78.5993135 29.250076C78.6060212 28.9163498 78.5671544 28.5832799 78.4838064 28.2602352 78.4219736 28.0214845 78.3071923 27.7999987 78.1481138 27.6124717 77.9997573 27.4517056 77.8116367 27.3336396 77.6030644 27.2703944 77.3690342 27.1992933 77.1255446 27.1649259 76.8811448 27.168499 76.7071454 27.1720174 76.5335396 27.1866029 76.3613626 27.2121684 76.169637 27.2354058 75.9801078 27.2743519 75.7946557 27.3286203L75.7946557 31.2479533C76.0123847 31.3079215 76.2344599 31.3505095 76.4588218 31.3753225 76.6573497 31.3935181 76.8197816 31.4044355 76.9858231 31.4044355 77.4259424 31.4185534 77.8507687 31.2408682 78.1517234 30.9167933 78.45132 30.5892724 78.6029231 30.0361261 78.6029231 29.250076L78.5993135 29.250076ZM84.3927188 32.7836622C84.3927188 32.9073923 84.3710612 32.987453 84.327746 33.0202051 84.2465664 33.0622839 84.1551062 33.0799677 84.0642454 33.0711527L82.6420636 33.0711527C82.4327069 33.0711527 82.3280286 32.9728965 82.3280286 32.7836622L82.3280286 25.8038287C82.3280286 25.6218727 82.4327069 25.5308947 82.6420636 25.5308947L84.0642454 25.5308947C84.1551062 25.5220797 84.2465664 25.5397635 84.327746 25.5818424 84.3805491 25.6427047 84.4042893 25.7238155 84.3927188 25.8038287L84.3927188 28.2602352 87.0566023 28.2602352 87.0566023 25.8038287C87.0566023 25.6218727 87.1612807 25.5308947 87.3706374 25.5308947L88.8144767 25.5308947C88.9042304 25.5208346 88.9948929 25.5386076 89.0743678 25.5818424 89.122573 25.6449339 89.143405 25.7250059 89.1321213 25.8038287L89.1321213 32.7836622C89.1321213 32.9073923 89.1140733 32.987453 89.0743678 33.0202051 88.9948929 33.0634398 88.9042304 33.0812128 88.8144767 33.0711527L87.3706374 33.0711527C87.1612807 33.0711527 87.0566023 32.9728965 87.0566023 32.7836622L87.0566023 29.8978395 84.3927188 29.8978395 84.3927188 32.7836622 84.3927188 32.7836622ZM94.2036069 25.3452995C95.3153632 25.3452995 96.1491804 25.6255118 96.7050585 26.1859364 97.2923579 26.8419958 97.5917606 27.7094907 97.5352661 28.5913952 97.5772463 28.9556711 97.4747517 29.3219143 97.2501079 29.610349 97.0352398 29.8024398 96.7534875 29.9006162 96.4668251 29.883283L92.8211308 29.883283C92.8225325 30.1442937 92.874013 30.4025655 92.9727339 30.6438592 93.0524598 30.8332754 93.1762724 31.0005412 93.3336937 31.1315014 93.4886058 31.2574548 93.6701431 31.3458533 93.8643047 31.389879 94.0822797 31.4392094 94.3050735 31.4636242 94.5284708 31.4626614 94.8118114 31.4620932 95.0941002 31.4278926 95.3695072 31.360766 95.64238 31.2982616 95.909305 31.211806 96.1672284 31.1023884 96.240862 31.0695322 96.3218279 31.056974 96.4018523 31.0659972 96.4569745 31.0958825 96.4993442 31.1450708 96.520969 31.2042838L96.9757784 32.2377941C97.0137607 32.297385 97.0217804 32.3714999 96.997436 32.4379457 96.962687 32.4986326 96.9112982 32.5479145 96.8494425 32.5798714 96.4757997 32.8212132 96.0608392 32.9902826 95.6257887 33.078431 95.2000404 33.1727283 94.7658169 33.2227249 94.3299429 33.2276349 93.0846315 33.2276349 92.1641839 32.9146706 91.5649906 32.29602 90.9657973 31.6773695 90.6914678 30.6875287 90.6914678 29.3374149 90.6825145 28.7646316 90.7666483 28.194235 90.9405301 27.6488629 91.0941176 27.1852863 91.33975 26.758105 91.6624497 26.3933663 91.9691174 26.0506294 92.349369 25.7830231 92.774206 25.6109553 93.2342929 25.4304377 93.7243702 25.340267 94.2180453 25.3452995L94.2036069 25.3452995ZM94.2469221 27.0702427C93.8838585 27.058614 93.5345366 27.2106913 93.2939882 27.4851025 93.0383541 27.7817762 92.8873177 28.1554175 92.864446 28.5477257L95.5283295 28.5477257C95.52975 28.3493206 95.5079416 28.1514397 95.4633567 27.9581882 95.4267136 27.7904929 95.3567208 27.6320306 95.2576096 27.4923807 95.1580792 27.3583003 95.0264328 27.2518714 94.8749922 27.1830555 94.6761306 27.1003109 94.4618926 27.0618298 94.2469221 27.0702427L94.2469221 27.0702427ZM102.635629 27.2267249 102.635629 32.7836622C102.635629 32.9073923 102.613971 32.987453 102.570656 33.0202051 102.489476 33.0622839 102.398016 33.0799677 102.307155 33.0711527L100.895802 33.0711527C100.679226 33.0711527 100.570938 32.9728965 100.570938 32.7836622L100.570938 27.2267249 98.5459537 27.2267249C98.3582546 27.2267249 98.2607954 27.1211904 98.2607954 26.9101214L98.2607954 25.8620547C98.252052 25.7704506 98.2695923 25.6782424 98.3113298 25.5963988 98.3438162 25.5527294 98.4232273 25.5308947 98.5459537 25.5308947L104.700319 25.5308947C104.781757 25.5212144 104.86365 25.5448038 104.927723 25.5963988 104.972813 25.6770897 104.991745 25.7699767 104.981867 25.8620547L104.981867 26.9101214C104.981867 27.1211904 104.888018 27.2267249 104.700319 27.2267249L102.635629 27.2267249ZM114.381261 32.7982187C114.39018 32.8746177 114.36949 32.9515378 114.323508 33.0129268 114.247221 33.061365 114.156747 33.0819202 114.067226 33.0711527L112.515099 33.0711527C112.316571 33.0711527 112.215502 32.9801747 112.215502 32.7982187L112.215502 24.9158833 108.378499 24.9158833 108.378499 32.7982187C108.386687 32.8740264 108.367462 32.9502666 108.324355 33.0129268 108.247635 33.0602991 108.157533 33.08077 108.068074 33.0711527L106.501508 33.0711527C106.299371 33.0711527 106.201912 32.9801747 106.201912 32.7982187L106.201912 23.9806293C106.182225 23.7210492 106.255195 23.462921 106.407659 23.2528051 106.602103 23.07079 106.866148 22.9842735 107.129578 23.0162623L113.49691 23.0162623C113.760292 22.9847766 114.024132 23.071226 114.218829 23.2528051 114.365938 23.4652329 114.43604 23.7222358 114.417357 23.9806293L114.417357 32.7982187 114.381261 32.7982187ZM122.712214 32.1358987C122.714251 32.2436284 122.697136 32.3508552 122.66168 32.4525022 122.608829 32.5601515 122.520901 32.6462288 122.412618 32.6963233 122.187069 32.805759 121.951285 32.8923107 121.708746 32.9547009 121.456913 33.0218647 121.201398 33.0741147 120.943511 33.1111831 120.68362 33.1524264 120.420119 33.1815394 120.153009 33.198522 119.889508 33.198522 119.636836 33.2276349 119.402213 33.2276349 118.863256 33.2404259 118.325135 33.1779686 117.803161 33.0420398 117.433424 32.9426957 117.087266 32.7694387 116.785254 32.5325629 116.543386 32.3305392 116.358001 32.0683754 116.247424 31.7719867 116.029956 31.132268 116.040166 30.4361785 116.2763 29.8032224 116.397779 29.4935137 116.587922 29.2159256 116.832179 28.9916984 117.102038 28.7487771 117.419231 28.5653335 117.763455 28.4531086 118.194204 28.3167809 118.644002 28.2516475 119.095397 28.2602352L120.651134 28.2602352 120.651134 28.0273315C120.651412 27.8962988 120.63688 27.7656609 120.607818 27.6379456 120.58048 27.5163307 120.519093 27.4051823 120.430948 27.3177029 120.322731 27.2151432 120.193281 27.1380811 120.05194 27.0920774 119.844643 27.0305849 119.629043 27.00234 119.413041 27.0083777 119.268657 27.0083777 119.106225 27.0156559 118.925746 27.0302124L118.387915 27.0847992C118.207436 27.1102731 118.026956 27.139386 117.860914 27.1721381 117.706346 27.2005537 117.553337 27.2369934 117.402495 27.2813117 117.319944 27.3129156 117.228765 27.3129156 117.146214 27.2813117 117.088942 27.2347216 117.053605 27.1661086 117.048754 27.0920774L116.82135 26.0876801C116.794107 26.0162334 116.794107 25.9371405 116.82135 25.8656938 116.855244 25.8125019 116.908306 25.7746629 116.969343 25.7601593 117.405773 25.6038122 117.856911 25.4928489 118.315723 25.4289993 118.779508 25.3609516 119.247577 25.3268972 119.716248 25.327103 120.748593 25.327103 121.505405 25.5503033 121.986685 25.9967021 122.497762 26.5187254 122.760846 27.2375155 122.708605 27.9691055L122.708605 32.1322596 122.712214 32.1358987ZM120.651134 29.6540184 119.524939 29.6540184C119.382454 29.6534494 119.240111 29.6631787 119.099006 29.6831314 118.951773 29.698687 118.809268 29.7445132 118.680293 29.8177788 118.54846 29.8911195 118.437766 29.9977032 118.359039 30.1271041 118.264573 30.2926822 118.219457 30.4822054 118.229093 30.6729722 118.201941 30.9519515 118.33144 31.222895 118.564786 31.3753225 118.842379 31.5223088 119.154034 31.5914338 119.467185 31.5754741 119.524939 31.5754741 119.60074 31.5754741 119.6982 31.5754741 119.795659 31.5754741 119.893118 31.5754741 120.001406 31.5463612 120.109694 31.5172482 120.225201 31.5136091 120.337099 31.4917744 120.444407 31.4699032 120.549518 31.4382336 120.651134 31.3971572L120.651134 29.6612967 120.651134 29.6540184ZM126.646676 35.7531847C126.646676 35.8587192 126.628628 35.9278625 126.596142 35.9533363 126.520335 35.9918234 126.434984 36.0070086 126.350689 35.9970058L124.877973 35.9970058C124.799724 36.0021403 124.721466 35.9871121 124.650568 35.9533363 124.603644 35.9278625 124.581986 35.8587192 124.581986 35.7531847L124.581986 26.3933663C124.577564 26.3070929 124.593652 26.221003 124.628911 26.1422669 124.689444 26.0573276 124.771811 25.9906432 124.867144 25.9493936 125.353572 25.7282539 125.868997 25.5787348 126.397614 25.5054208 126.931356 25.420443 127.470752 25.3766465 128.011104 25.3744125 128.594203 25.3565286 129.174557 25.4618965 129.714835 25.6837377 130.146219 25.867843 130.52748 26.1536315 130.826591 26.5170964 131.113533 26.8823343 131.319124 27.3055682 131.429394 27.7580365 131.555119 28.2599951 131.616979 28.7760425 131.613484 29.2937455 131.617281 29.8052115 131.550465 30.3147223 131.414956 30.8076197 131.292561 31.2576227 131.08411 31.6791711 130.801324 32.0485598 130.52148 32.4079949 130.161645 32.6959729 129.750931 32.8891967 129.283893 33.1055211 128.773979 33.2113254 128.260167 33.198522 127.995019 33.2001211 127.729965 33.1879747 127.466055 33.1621308 127.190517 33.1337099 126.916905 33.0887476 126.646676 33.0274833L126.646676 35.7531847 126.646676 35.7531847ZM129.451334 29.250076C129.458042 28.9163498 129.419175 28.5832799 129.335827 28.2602352 129.275452 28.0209199 129.160505 27.7991151 129.000134 27.6124717 128.85246 27.4508731 128.664097 27.3326552 128.455085 27.2703944 128.221142 27.1988926 127.97759 27.1645165 127.733165 27.168499 127.55796 27.1718542 127.383143 27.1864401 127.209774 27.2121684 127.01917 27.2350118 126.830808 27.2739662 126.646676 27.3286203L126.646676 31.2479533C126.86433 31.3082508 127.086431 31.3508439 127.310842 31.3753225 127.505761 31.3935181 127.671802 31.4044355 127.834234 31.4044355 128.274353 31.4185534 128.69918 31.2408682 129.000134 30.9167933 129.299731 30.5892724 129.451334 30.0361261 129.451334 29.250076L129.451334 29.250076ZM140.08882 29.250076C140.08882 30.5128509 139.789224 31.4917744 139.19003 32.1613726 138.590837 32.8309708 137.681218 33.1948828 136.457564 33.1948828 135.233911 33.1948828 134.320682 32.8491664 133.750366 32.1613726 133.180049 31.4735788 132.898501 30.5055727 132.898501 29.250076 132.891144 28.6869334 132.975277 28.1263747 133.147563 27.590637 133.297211 27.1296106 133.543413 26.7064038 133.869482 26.3496968 134.182452 26.0110789 134.56579 25.7463881 134.992068 25.5745641 135.471518 25.3861076 135.982733 25.2934104 136.49727 25.3016301 137.692047 25.3016301 138.590837 25.6655421 139.19364 26.3424186 139.796443 27.019295 140.099649 27.9982185 140.099649 29.2209631L140.08882 29.250076ZM137.923061 29.2937455C137.924587 28.9950062 137.900433 28.6966955 137.850869 28.4021609 137.812901 28.1598513 137.730915 27.9266838 137.609026 27.7143671 137.502877 27.5284972 137.351267 27.3731419 137.168655 27.2631161 136.965365 27.1469788 136.734447 27.0890917 136.50088 27.0957166 136.050193 27.0682011 135.620738 27.2916682 135.381904 27.6779759 135.118522 28.1578189 134.993493 28.7023599 135.020944 29.250076 134.987531 29.8162463 135.10335 30.3812461 135.356637 30.8876803 135.592846 31.2669793 136.018285 31.4828401 136.461174 31.4481049 136.697173 31.4560719 136.930767 31.3981404 137.136169 31.2807054 137.323299 31.1684551 137.479639 31.0108371 137.590978 30.8221762 137.71594 30.6125439 137.802732 30.3820817 137.84726 30.1416606 137.902717 29.8625475 137.92933 29.5783908 137.926671 29.2937455L137.923061 29.2937455ZM147.419914 25.5163382C147.665473 25.4875601 147.911724 25.5641523 148.098519 25.7274072 148.233564 25.9214025 148.296213 26.1572941 148.275389 26.3933663L148.275389 32.7836622C148.28696 32.8636754 148.26322 32.9447862 148.210416 33.0056486 148.129237 33.0477274 148.037777 33.0654112 147.946916 33.0565963L146.503076 33.0565963C146.410255 33.0679552 146.31652 33.0446535 146.239576 32.9910921 146.189896 32.9285423 146.166564 32.8488266 146.174603 32.7691057L146.174603 27.2267249 144.423948 27.2267249 144.380633 27.9545491C144.334911 28.7866946 144.273548 29.5048145 144.196543 30.1089085 144.138949 30.6387249 144.008976 31.1579697 143.810316 31.6518957 143.643981 32.0579489 143.379705 32.4156998 143.041472 32.6926842 142.644966 32.9943659 142.195516 33.217842 141.716749 33.351365 141.583194 33.4023127 141.489344 33.409591 141.431591 33.3731998 141.364428 33.3267604 141.314816 33.2587874 141.290817 33.1803264L140.90459 32.205042C140.864474 32.1227027 140.84821 32.0306252 140.857665 31.9393862 140.857665 31.8847994 140.940686 31.8265735 141.063412 31.7610693 141.287922 31.6642893 141.496153 31.5329271 141.680653 31.3716834 141.857021 31.1999052 141.989535 30.987647 142.06688 30.7530329 142.185037 30.4065113 142.26375 30.0475744 142.301504 29.6831314 142.359258 29.2391587 142.409792 28.6532602 142.456717 27.9254361L142.557786 26.3606142C142.549126 26.1213406 142.627424 25.8871129 142.777971 25.7019333 142.968129 25.5574036 143.205072 25.4898938 143.442137 25.5126991L147.419914 25.5163382ZM151.029513 33.0565963C150.767677 33.0920071 150.503649 33.0094888 150.307593 32.8309708 150.185519 32.6530797 150.125816 32.4392066 150.137942 32.2232376L150.137942 25.8038287C150.137942 25.6218727 150.24262 25.5308947 150.451977 25.5308947L151.874159 25.5308947C151.96502 25.5220797 152.05648 25.5397635 152.137659 25.5818424 152.190462 25.6427047 152.214203 25.7238155 152.202632 25.8038287L152.202632 27.8854058 153.967726 27.8854058C154.531197 27.8606228 155.093168 27.961263 155.613703 28.1801745 155.972537 28.3455587 156.286904 28.5951165 156.53054 28.9079987 156.726487 29.1565826 156.861308 29.4483836 156.923987 29.7595529 156.969192 29.9996275 156.994546 30.2430719 156.999788 30.4873771 157.009027 31.1919122 156.715506 31.8660302 156.194848 32.3360504 155.936857 32.5744516 155.635246 32.7598653 155.306887 32.8819185 154.952265 33.0195667 154.575116 33.0887001 154.19513 33.0857092L151.029513 33.0565963ZM154.873735 30.4291511C154.879673 30.1775254 154.790658 29.9330065 154.624673 29.7449964 154.427924 29.546421 154.155127 29.4441159 153.877486 29.4647841L152.199023 29.4647841 152.199023 31.4189919 153.859438 31.4189919C154.031146 31.4253506 154.201891 31.3904235 154.357562 31.3170966 154.480708 31.2600116 154.588419 31.1738871 154.671597 31.0659972 154.746442 30.970435 154.80055 30.860094 154.83042 30.7421155 154.859176 30.6450734 154.876145 30.5448716 154.880954 30.4437076L154.873735 30.4291511Z" fill="#004274"/></g></g></svg>