
<svg width="189" height="45" viewBox="0 0 189 45" fill="none" xmlns="http://www.w3.org/2000/svg">
<path d="M15.3069 29.0401L6.63863 6.88318H0L13.0659 38.1313H17.4634L30.4024 6.88318H23.8906L15.3069 29.0401Z" fill="black"/>
<path d="M31.1294 22.6129C31.1294 27.1374 32.6516 30.9429 35.7384 34.0297C38.8252 37.1164 42.673 38.6387 47.282 38.6387C51.891 38.6387 55.7389 37.0742 58.8679 33.9451C62.0392 30.8161 63.6037 27.0105 63.6037 22.5284C63.6037 18.0462 62.0392 14.2407 58.8679 11.0693C55.7389 7.89801 51.891 6.3335 47.3666 6.3335C42.8422 6.3335 38.9943 7.89801 35.823 11.0693C32.6939 14.2407 31.1294 18.0885 31.1294 22.6129ZM57.5994 22.5284C57.6416 25.5305 56.6691 28.0253 54.6818 30.0127C52.6944 32 50.2842 32.9726 47.3666 32.9726C44.449 32.9726 42.0388 32 40.0514 30.0127C38.1063 28.0253 37.1338 25.5305 37.1338 22.5284C37.1338 19.5262 38.1063 17.0314 40.0937 15.0441C42.081 13.0567 44.4912 12.0419 47.3666 12.0419C50.1996 12.0419 52.6098 13.0567 54.5972 15.0441C56.5845 17.0314 57.5994 19.5262 57.5994 22.5284Z" fill="black"/>
<path d="M80.7123 38.1313C85.4059 38.1313 89.1269 36.7359 91.7908 33.9451C94.497 31.1544 95.8501 27.3488 95.8501 22.5707C95.8501 17.708 94.5393 13.9024 91.8754 11.1116C89.2115 8.27856 85.575 6.88318 80.966 6.88318H68.915V38.1313H80.7123ZM74.6657 12.4224H80.966C83.7991 12.4224 85.9556 13.395 87.5201 15.2978C89.0846 17.2005 89.8457 19.5685 89.8457 22.4438C89.8457 25.3614 89.0423 27.8139 87.4778 29.7167C85.9133 31.6195 83.7568 32.592 80.9238 32.592H74.6657V12.4224Z" fill="black"/>
<path d="M101.331 38.1313H107.124V6.88318H101.331V38.1313Z" fill="black"/>
<path d="M120.301 38.1313H126.136V12.4647H135.143V6.88318H111.294V12.4647H120.301V38.1313Z" fill="black"/>
<path d="M147.786 38.6386C151.084 38.6386 153.79 37.7507 155.862 36.017C157.934 34.2834 158.991 32 158.991 29.2516C158.991 25.9111 157.258 23.3318 153.833 21.5981C153.072 21.2176 151.845 20.6256 150.112 19.9067L146.814 18.3845C145.08 17.4965 144.234 16.3972 144.234 15.0863C144.234 13.099 145.926 11.7882 148.463 11.7882C150.704 11.7882 153.452 12.8453 155.186 14.8326L158.399 10.6888C155.778 7.8134 152.437 6.37573 148.378 6.37573C145.291 6.37573 142.797 7.22142 140.894 8.95507C138.991 10.6465 138.018 12.7607 138.018 15.34C138.018 18.5536 139.668 21.133 142.923 23.0358C143.727 23.5009 144.953 24.0929 146.602 24.7694C148.251 25.4037 149.266 25.8265 149.689 26.038C151.634 27.0105 152.607 28.1945 152.607 29.5898C152.607 31.6618 150.661 33.2263 147.828 33.2263C144.403 33.2263 141.697 31.7041 139.71 28.7019L136.243 32.6766C138.737 36.5245 143.05 38.6386 147.786 38.6386Z" fill="black"/>
<path d="M188.473 38.1313L176.506 6.88318H172.067L159.973 38.1313H166.104L168.684 31.0275H179.762L182.342 38.1313H188.473ZM178.113 25.8265H170.375L174.265 15.1286L178.113 25.8265Z" fill="black"/>
<path d="M40.9156 8.92653C43.0657 5.54789 47.5705 1.31178 49.3622 0C48.9463 0.799869 48.268 2.4188 48.8823 2.49559C49.4966 2.57238 50.9299 0.863858 51.5698 0C51.0259 0.767874 49.2246 3.13852 49.9381 6.04701C51.1859 11.1342 57.5209 16.7013 57.7129 21.5965C57.9048 26.4916 55.5052 33.9784 47.7305 33.9784C40.3273 33.9784 37.1121 28.1364 36.7883 22.8442C36.4026 16.5406 39.4546 11.2224 40.9156 8.92653Z" fill="#8DE1E1"/>
<mask id="mask0_536:2212" style="mask-type:alpha" maskUnits="userSpaceOnUse" x="36" y="0" width="22" height="34">
<path d="M40.9156 8.92653C43.0657 5.54789 47.5705 1.31178 49.3622 0C48.9463 0.799869 48.268 2.4188 48.8823 2.49559C49.4966 2.57238 50.9299 0.863858 51.5698 0C51.0259 0.767874 49.2246 3.13852 49.9381 6.04701C51.1859 11.1342 57.5209 16.7013 57.7129 21.5965C57.9048 26.4916 55.5052 33.9784 47.7305 33.9784C40.3273 33.9784 37.1121 28.1364 36.7883 22.8442C36.4026 16.5406 39.4546 11.2224 40.9156 8.92653Z" fill="#8DE1E1"/>
</mask>
<g mask="url(#mask0_536:2212)">
<g opacity="0.7">
<path opacity="0.7" d="M38.2277 28.2194C36.1545 24.9176 36.9799 19.3569 37.6518 16.9893C37.4041 18.8769 37.1724 23.401 38.2277 26.3957C39.283 29.3904 42.2508 32.2508 43.6028 33.3066C42.675 32.9866 40.301 31.5213 38.2277 28.2194Z" fill="white"/>
</g>
<path d="M43.4114 14.1097C44.7242 6.14535 47.4297 2.28763 48.7415 0.943848C48.2202 1.64773 48.025 2.92911 48.409 3.0651C48.9849 3.26909 49.6725 2.65877 50.4404 1.69892C47.8488 5.63428 46.099 7.87071 45.3311 15.9334C44.8253 21.244 47.3467 23.3242 45.811 24.188C45.1365 24.5674 41.9716 22.8443 43.4114 14.1097Z" fill="#E8FAFF" fill-opacity="0.7"/>
<g opacity="0.75">
<path opacity="0.75" d="M52.1462 22.0764C50.4569 19.3889 51.5703 14.1737 52.3382 11.9021C52.6261 12.51 52.8181 13.4378 53.8739 15.7415C54.7592 17.673 56.1775 18.717 55.9856 23.0363C55.832 26.4917 53.6179 29.2752 52.6261 30.1391C53.17 28.5714 53.8355 24.764 52.1462 22.0764Z" fill="#ADFFFF" fill-opacity="0.75"/>
</g>
<g opacity="0.65">
<path opacity="0.65" d="M53.8733 23.4202C53.6429 22.2683 53.6493 19.9967 53.6813 19.0049C53.9693 20.0287 54.4492 23.2282 54.6412 23.7081C55.2482 25.2258 54.9291 27.2595 54.0653 27.0676C53.2014 26.8756 54.1612 24.8599 53.8733 23.4202Z" fill="white" fill-opacity="0.85"/>
</g>
<g opacity="0.65">
<path opacity="0.65" d="M52.1418 24.3774C52.0651 23.6864 51.6619 22.2978 51.47 21.6899C51.8539 22.0738 52.5171 23.0628 52.8137 23.7056C53.3896 24.9533 53.1017 25.8172 52.6218 25.8172C52.1418 25.8172 52.2378 25.2413 52.1418 24.3774Z" fill="white" fill-opacity="0.57"/>
</g>
<path d="M54.449 14.3018C54.5639 14.478 54.6918 14.6883 54.8275 14.9282C55.8721 16.6715 57.4338 19.4281 57.6165 21.1166C57.8581 23.3504 58.0004 26.2038 55.6968 29.7552C53.8539 32.5964 51.0255 33.6266 49.8417 33.7866C50.5136 33.5306 52.1838 32.7499 53.4891 31.6749C55.1209 30.3311 56.7526 27.7396 57.0406 23.2283C57.2433 20.0515 55.8248 16.6912 54.8275 14.9282C54.6911 14.7006 54.5635 14.4902 54.449 14.3018Z" fill="#479B9B" fill-opacity="0.76"/>
<path d="M39.8601 26.1078C37.5565 19.5041 41.0759 10.6863 42.5477 8.06274C42.3237 9.63049 41.4919 11.8061 41.7798 15.0696C41.9825 17.3663 43.8915 20.1568 44.3714 23.3242C44.8513 26.4917 42.9316 27.7395 45.0433 29.8512C46.5621 31.37 48.8672 31.4509 50.1308 31.2657C50.269 31.241 50.3972 31.217 50.5144 31.1949C50.4014 31.2208 50.2727 31.2449 50.1308 31.2657C47.6655 31.706 42.0415 32.361 39.8601 26.1078Z" fill="#63B7B7" fill-opacity="0.5"/>
<path d="M41.0116 23.6121C39.783 18.8512 41.3955 11.774 42.2594 9.02246C41.5875 13.0538 42.0482 18.7361 42.7393 23.0362C43.4304 27.3363 46.2907 30.9709 47.4425 31.6747C45.8748 30.8429 42.2402 28.3729 41.0116 23.6121Z" fill="#368A8A" fill-opacity="0.65"/>
<path d="M43.3353 22.4604C43.796 24.1497 43.9112 26.6837 43.9112 27.7395C43.4952 26.9396 42.5482 24.8792 42.0875 23.0363C41.6268 21.1934 42.0235 18.749 42.2794 17.7571C42.4394 18.621 42.8745 20.771 43.3353 22.4604Z" fill="#186C6C" fill-opacity="0.7"/>
</g>
</svg>
