<svg width="175" height="114" viewBox="0 0 175 114" xmlns="http://www.w3.org/2000/svg" xmlns:xlink="http://www.w3.org/1999/xlink"><defs><rect id="a" x="0" y="0" width="175" height="114" rx="12"/></defs><g fill="none" fill-rule="evenodd"><mask id="b" fill="#fff"><use xlink:href="#a"/></mask><use fill="#FFF" xlink:href="#a"/><rect fill="#1A1F71" fill-rule="nonzero" mask="url(#b)" y="57" width="176" height="57"/><path d="M76.1352301,15.4698717 L65.397752,41.5829889 L58.3930453,41.5829889 L53.110713,20.744181 C52.7881279,19.4637807 52.5116263,18.9939091 51.5381103,18.4476833 C49.9424658,17.5666739 47.3157007,16.7385251 45,16.2275397 L45.1555321,15.4698717 L56.428732,15.4698717 C57.8630839,15.4698717 59.1591851,16.4448553 59.4875307,18.1305199 L62.2755883,33.242767 L69.1708465,15.4698717 L76.1352301,15.4698717 Z M103.572251,33.0606918 C103.601054,26.1711986 94.2288022,25.7894279 94.2921672,22.7058951 C94.315209,21.7720252 95.1850369,20.773548 97.1032666,20.520992 C98.0537408,20.3976506 100.668985,20.2978029 103.635616,21.6897977 L104.799227,16.1511856 C103.203583,15.563846 101.152863,15 98.6009835,15 C92.0513523,15 87.4429926,18.547531 87.4084299,23.6338917 C87.3681068,27.3928649 90.6976466,29.4896672 93.2092027,30.7407005 C95.7956445,32.0211007 96.659712,32.8433761 96.6481911,33.9828149 C96.6309097,35.7330868 94.5859501,36.508375 92.6850018,36.537742 C89.3497014,36.5906026 87.4199508,35.6214923 85.8819108,34.8873178 L84.6779768,40.6138786 C86.2275378,41.3363063 89.0847208,41.9647596 92.0455919,42 C98.9984545,41.9941266 103.55497,38.4877094 103.572251,33.0606918 M120.870882,41.5829889 L127,41.5829889 L121.648542,15.4698717 L115.997541,15.4698717 C114.724482,15.4698717 113.653038,16.2216663 113.174921,17.3845987 L103.232385,41.5829889 L110.191008,41.5829889 L111.573516,37.6830542 L120.07594,37.6830542 L120.870882,41.5829889 Z M113.474464,32.3323907 L116.965297,22.5238199 L118.969933,32.3323907 L113.474464,32.3323907 Z M85.5996488,15.4698717 L80.1214612,41.5829889 L73.4969442,41.5829889 L78.9751317,15.4698717 L85.5996488,15.4698717 Z" fill="#1A1F71" fill-rule="nonzero"/><g transform="translate(57 78)" fill="#FFF" fill-rule="nonzero"><path d="M0.544916273,11.0838375 C1.29059117,11.5496975 2.45499121,11.9490061 3.65954297,11.9490061 C5.15089277,11.9490061 5.98834305,11.2048401 5.98834305,10.0976664 C5.98834305,9.06914434 5.34017948,8.46413137 3.71690258,7.84096802 C1.57738921,7.05445117 0.217966509,5.84442524 0.217966509,3.90838375 C0.217966509,1.66983578 1.97317051,2.13162821e-14 4.78379129,2.13162821e-14 C6.17762975,2.13162821e-14 7.19289481,0.320656871 7.85826626,0.665514261 L7.30187806,2.68020743 C6.82579332,2.42005186 5.92524748,2.03284356 4.72069572,2.03284356 C3.22934592,2.03284356 2.59839023,2.86171132 2.59839023,3.66637857 C2.59839023,4.71305099 3.34406513,5.19706137 5.06485336,5.88072602 C7.30187806,6.78824546 8.36876677,7.97407087 8.36876677,9.91011236 C8.36876677,12.1063094 6.80284948,13.9818496 3.49893607,13.9818496 C2.12230549,13.9818496 0.711259136,13.5764909 0,13.1348315 L0.544916273,11.0838375 Z"/><polygon points="17.5118882 7.75626621 12.6592654 7.75626621 12.6592654 11.7493518 18.0854843 11.7493518 18.0854843 13.7821953 10.3075215 13.7821953 10.3075215 0.199654278 17.7986863 0.199654278 17.7986863 2.23249784 12.6592654 2.23249784 12.6592654 5.74157303 17.5118882 5.74157303 17.5118882 7.75626621"/><path d="M29.1845684 13.3828868C28.6281802 13.6672429 27.4064206 13.9878997 25.8405033 13.9878997 21.7507633 13.9878997 19.2670922 11.2895419 19.2670922 7.15730337 19.2670922 2.68625756 22.226848 0 26.1617171 0 27.7104265 0 28.800259.320656871 29.2763438.586862576L28.7773152 2.55920484C28.1635674 2.27484875 27.3089092 2.03284356 26.2534925 2.03284356 23.6378943 2.03284356 21.7450273 3.76923077 21.7450273 7.03025065 21.7450273 10.0129646 23.3855121 11.9066551 26.2362846 11.9066551 27.1712462 11.9066551 28.1635674 11.7070009 28.7945231 11.4226448L29.1845684 13.3828868ZM33.337404.199654278 33.337404 8.11927398C33.337404 10.781331 34.3870848 12.0095073 35.975946 12.0095073 37.6737904 12.0095073 38.6890554 10.781331 38.6890554 8.11927398L38.6890554.199654278 41.0407993.199654278 41.0407993 7.95592048C41.0407993 12.1486603 38.9987973 14 35.9013785 14 32.9186789 14 30.9913961 12.2454624 30.9913961 7.97407087L30.9913961.193604149 33.337404.193604149 33.337404.199654278ZM43.5416782.405358686C44.4364881.223854797 45.7385512.102852204 47.0979739.102852204 48.9506892.102852204 50.1953927.423509075 51.0729947 1.19187554 51.7785179 1.81503889 52.1800352 2.76490925 52.1800352 3.93258427 52.1800352 5.68712187 51.0557868 6.87294728 49.8282912 7.32065687L49.8282912 7.38115817C50.7632528 7.74416595 51.319641 8.6940363 51.623647 10.0008643 52.0423721 11.6949006 52.3865297 13.2679343 52.638912 13.7882455L50.2298085 13.7882455C50.0405218 13.3828868 49.713572 12.2757131 49.3694144 10.5816768 48.985105 8.80898876 48.394301 8.24632671 47.0578222 8.2039758L45.8704783 8.2039758 45.8704783 13.7882455 43.5416782 13.7882455 43.5416782.405358686 43.5416782.405358686ZM45.8704783 6.38893691 47.2643168 6.38893691C48.8531779 6.38893691 49.8225553 5.49956785 49.8225553 4.15038894 49.8225553 2.68020743 48.8474419 1.97234226 47.3216764 1.97234226 46.5760015 1.97234226 46.0999167 2.03284356 45.8704783 2.09334486L45.8704783 6.38893691 45.8704783 6.38893691Z"/><polygon points="61.4264039 7.75626621 56.5737811 7.75626621 56.5737811 11.7493518 62 11.7493518 62 13.7821953 54.2220372 13.7821953 54.2220372 0.199654278 61.713202 0.199654278 61.713202 2.23249784 56.5737811 2.23249784 56.5737811 5.74157303 61.4264039 5.74157303"/></g></g></svg>