<svg width="175" height="114" viewBox="0 0 175 114" xmlns="http://www.w3.org/2000/svg"><g fill="none" fill-rule="evenodd"><rect fill="#FFF" width="175" height="114" rx="12"/><g transform="translate(22 14)" fill-rule="nonzero"><rect width="131.39" height="86.9" opacity="0" fill="#FFF"/><rect fill="#FF5F00" x="48.37" y="15.14" width="34.66" height="56.61"/><path d="M51.94,43.45 C51.9312973,32.4050015 57.0016087,21.9693787 65.69,15.15 C50.9297903,3.55005178 29.7335373,5.23968455 16.9973979,19.0314698 C4.26125847,32.8232551 4.26125847,54.0867449 16.9973979,67.8785302 C29.7335373,81.6703154 50.9297903,83.3599482 65.69,71.76 C56.9988438,64.9384557 51.9282226,54.4985077 51.94,43.45 Z" fill="#EB001B"/><path d="M120.5 65.76 120.5 64.6 121 64.6 121 64.36 119.81 64.36 119.81 64.6 120.28 64.6 120.28 65.76 120.5 65.76ZM122.81 65.76 122.81 64.36 122.45 64.36 122.03 65.36 121.61 64.36 121.25 64.36 121.25 65.76 121.51 65.76 121.51 64.7 121.9 65.61 122.17 65.61 122.56 64.7 122.56 65.76 122.81 65.76ZM123.94 43.45C123.94 57.2333804 116.069421 69.8066503 103.671755 75.8298939 91.2740897 81.8531374 76.5255898 80.2688948 65.69 71.75 74.3746003 64.9248318 79.4452933 54.4905965 79.4452933 43.445 79.4452933 32.3994035 74.3746003 21.9651682 65.69 15.14 76.5255898 6.62110517 91.2740897 5.03686258 103.671755 11.0601061 116.069421 17.0833497 123.94 29.6566196 123.94 43.44L123.94 43.45Z" fill="#F79E1B"/></g></g></svg>